<svg xmlns="http://www.w3.org/2000/svg" viewBox="0 0 1070 595">
  <defs/>
  <defs>
    <filter id="a" width="133.9%" height="213.8%" x="-16.9%" y="-56.9%" filterUnits="objectBoundingBox">
      <feGaussianBlur in="SourceGraphic" stdDeviation="37"/>
    </filter>
  </defs>
  <g fill="none" fill-rule="evenodd">
    <path fill="#FFF" fill-rule="nonzero" stroke="#FFF" d="M83.9588429 322c1.3429725 0 1.8801614-1.856842 1.8801614-4.509474 0 0-.2685944-7.957894-.2685944-17.772631 0-13.528421 3.2231338-31.03579 9.1322125-44.298948 2.4173504-5.835789 15.0412916-29.709473 16.6528586-29.709473.805783 0 1.074378 3.448421 1.074378 4.509473-.537189 7.427369-1.342973 19.364211-1.342973 31.831579 0 15.650527 1.342973 52.522106 24.979287 52.522106 3.760323 0 8.326429-1.061053 13.16113-4.509474C156.747949 304.757895 164 293.616842 164 283.802105c0-1.326316-.537189-3.978947-2.685945-3.978947-1.074378 0-1.342972 1.061053-1.342972 1.061053-2.148756 7.162105-9.937996 19.894736-18.801614 19.894736-7.520646 0-8.863618-15.385263-8.863618-28.648421 0-18.037894 1.611566-36.606315 4.566106-57.562105 0-5.570526-5.103295-6.631579-10.475185-6.896842 0 0-2.148756-2.387368-4.834701-2.387368-9.132212 0-29.276799 38.993684-32.7685273 48.277894-.2685945.530527-.537189.79579-1.074378.79579-.2685944 0-.8057834-.265263-.8057834-1.061053 0-7.427368 1.0743779-22.547368 2.4173504-38.463158 26.0536653-24.40421 44.3180903-76.926316 44.3180903-111.675789C133.648823 83.7936842 127.739744 70 114.578614 70c-15.3098853 0-36.2602553 72.682105-40.8263616 138.202105l-.8057834 9.549474c-4.0289173 1.326316-10.2065905 2.652632-9.937996 2.652632 0 .265263.8057834.795789 2.6859448.795789 2.4173504 1.061053 1.074378 2.652632 3.4917284 3.713684.2685944.265263 1.0743779.530527 2.1487559.530527H72.40928c-2.9545394 39.258947-6.4462677 75.6-6.9834567 85.149473 2.4173504 2.387369 12.0867519 7.162105 16.6528582 10.610527.8057835.530526 1.3429725.795789 1.8801614.795789zM90 204c4.5132743-49.567282 17.522124-101 26.548673-101C118.672566 103 120 107.263852 120 113.926121 120 134.712401 109.646018 179.74934 90 204zm109.757009 107c23.308412 0 39.383178-33.634703 39.383178-63.561644 0-1.589041 0-3.442922-.267913-5.031963 6.965732-3.178082 11.252337-7.150685 13.127726-12.447489 0-1.059361-.535826-1.324201-1.607477-1.324201l-2.563526-.003661c-9.328371-.042103-13.232611-.568394-22.352361-7.147024-6.161994 2.118722-15.003116 6.621005-15.003116 6.621005 6.965732 3.972603 9.912773 15.09589 9.912773 27.808219 0 21.716895-8.841122 47.406393-21.433022 47.406393-9.64486 0-14.46729-14.03653-14.46729-31.251142 0-25.954338 11.252337-58.52968 34.560748-58.52968 3.750779 0 7.76947.79452 12.056075 2.648402 0-16.155252-10.180686-21.187215-22.23676-21.187215C183.41433 195 166 232.872146 166 265.182648 166 289.547945 175.912773 311 199.757009 311zm71.918667-142C280.324324 169 286 158.826772 286 149.724409 286 141.96063 281.945946 135 272.216216 135c-10 0-16.216216 9.637795-16.216216 18.740157C256 161.771654 260.594595 169 271.675676 169zm-55.852147 269c10.107417 0 20.480819-3.983051 29.258312-13.276836C275.670077 392.858757 266.094629 305.762712 277 208.310734 276.202046 204.327684 270.882353 203 265.56266 203c-6.649617 0-13.299233 2.124294-13.299233 6.107345 0 0 1.861893 51.248587 1.861893 65.853107 0 53.107345-4.255755 119.225989-24.470589 140.734463-5.053708 5.310735-11.43734 7.700565-18.086956 7.700565-16.225064 0-33.514067-14.60452-33.514067-33.9887 0-1.062147-.531969-1.593221-1.063938-1.593221-1.063939 0-1.861893.79661-2.925831 1.062147C173 389.40678 173 390.468927 173 392.327684 173 418.615819 193.746803 438 215.823529 438zm107.932835-124C343.4 314 358 295.438202 358 276.611236c0-9.280899-2.123636-20.152809-11.945455-20.152809-3.185454 0-3.185454 1.325843-3.185454 1.591011 1.592727 5.038202 2.389091 9.811236 2.389091 14.319101 0 17.235955-10.618182 29.698877-20.970909 29.698877-8.76 0-16.723637-8.485394-18.316364-30.494382 27.872727-15.910113 40.083636-38.18427 40.083636-54.624719 0-12.197753-6.636363-20.948315-18.581818-20.948315C301.723636 196 285 231.267416 285 263.352809 285 289.869663 296.414545 314 323.756364 314zM306 260c.531915-23.572973 9.308511-49 21.010638-49C329.93617 211 331 213.648649 331 216.032432c0 12.978379-14.361702 36.816217-25 43.967568zm84.669975 75c3.483871 0 3.751861-3.703797 3.751861-3.703797-7.503722-11.640507-10.183623-29.63038-10.183623-50.265823 0-28.836709 5.359802-62.7 10.987593-90.478481 20.099256-5.026583 37.786601-11.905064 42.342432-14.021519 0 0 .53598-2.116456 2.411911-5.026583.80397-1.322784 4.019851-1.322784 4.019851-3.174683 0-2.116456-4.555831-2.116456-7.771712-2.116456-4.287841 0-19.295286 3.174684-37.250621 5.291139 4.019852-18.783544 7.503723-32.540506 7.503723-35.979746 0-5.820254-12.595534-5.29114-18.491316-9.259494C387.722084 126 387.186104 126 386.918114 126c-1.33995 0-2.411911 1.058228-2.947891 1.587342-2.94789 16.931645-5.359801 30.159493-7.503722 45.23924H373.7866c-12.327543 0-24.387096-1.322785-33.766749-5.291139-.53598-.793671-1.07196-1.058228-1.60794-1.058228-1.607941 0-2.411911 3.968355-2.411911 6.349367 0 14.286076 6.163772 23.54557 20.367246 23.54557 5.359801 0 11.255583-.264557 17.151364-1.322785-2.6799 21.693671-4.555831 45.768355-4.555831 67.462025 0 34.656962 5.091812 64.551899 21.707196 72.488608zm49.086389-21C459.4 314 474 295.438202 474 276.611236c0-9.280899-2.123636-20.152809-11.945455-20.152809-3.185454 0-3.185454 1.325843-3.185454 1.591011 1.592727 5.038202 2.389091 9.811236 2.389091 14.319101 0 17.235955-10.618182 29.698877-20.970909 29.698877-8.76 0-16.723637-8.485394-18.316364-30.494382 27.872727-15.910113 40.083636-38.18427 40.083636-54.624719 0-12.197753-6.636363-20.948315-18.581818-20.948315C417.723636 196 401 231.267416 401 263.352809 401 289.869663 412.414545 314 439.756364 314zM422 260c.531915-23.572973 9.308511-49 21.010638-49C445.93617 211 447 213.648649 447 216.032432c0 12.978379-14.361702 36.816217-25 43.967568zm210.31982 59c13.022522 0 26.842342-3.709402 39.333333-10.598291C691.851351 297.008547 707 275.547009 707 242.957265c0-2.384615-1.86036-2.91453-2.126126-5.564103.265766-1.8547.531531-3.179487.531531-4.239316 0-2.119658-.531531-2.649572-1.328828-2.649572-1.063063 0-2.126127 1.059829-2.126127 1.059829-12.756756 28.08547-49.963964 71.538461-85.31081 71.538461-17.009009 0-22.324325-19.34188-22.324325-41.068376s5.315316-46.102564 10.099099-56.435897c.265766-.529915.265766-.794872.265766-1.324787 0-3.179487-9.301802-9.273504-12.225225-9.273504-.797297 0-1.328829.264957-2.126126.794872-15.414415 14.572649-27.905406 60.145299-36.40991 78.692307 1.86036-9.538461 2.126126-24.376068 2.126126-54.051282 0-10.863247-3.189189-16.957265-14.617117-16.957265-9.567568 0-19.932433 27.290599-28.702703 63.324787 2.126126-11.65812 4.252252-25.435898 4.252252-37.358975 0-15.102564-3.454954-26.760683-14.085585-26.760683-14.085586 0-24.450451 12.188034-31.891892 26.230769 0 3.444444 2.923423 4.239316 5.04955 4.239316 1.063063 0 1.86036-.264957 1.86036-.264957 6.112613-11.393163 13.022522-18.811966 17.274775-18.811966 3.189189 0 4.518018 6.094017 4.518018 15.102564 0 23.051282-7.707208 64.91453-8.504505 70.74359.265766 6.623932 7.175676 11.128205 13.288288 11.128205 4.518019 0 8.238739-2.384615 8.238739-8.213675 5.581081-46.102564 16.477478-79.222222 23.121622-79.222222 1.594594 0 2.391892 10.333333 2.391892 23.846153 0 20.666667-1.594595 48.752137-2.657658 58.290599v.264957c0 3.709402 7.707207 3.709402 14.351351 3.709402 2.126127 0 3.986487-.794872 3.986487-2.649573 5.846847-17.487179 14.882883-58.555555 22.59009-71.273504-.531532 5.564102-1.063063 11.128205-1.063063 16.162393C575.445946 293.034188 595.90991 319 632.31982 319z"/>
    <ellipse cx="307.5" cy="431" fill="red" rx="27.5" ry="27"/>
    <g fill-rule="nonzero">
      <path fill="red" d="M155.259259 195v-72.532189h-46.577778v35.429185H72.9164021V36.8240343H87.610582V0H0v36.8240343h15.2486772V157.896996H0V195h155.259259zM262 195v-37.103004h-17.215306V36.8240343H262V0h-92.185185v36.8240343h17.492972V157.896996h-17.492972V195H262zm143.616038 0l66.078185-158.7339056h13.490962V0h-77.917192v36.2660944h14.31694l-25.054645 60.8154507c-2.936808 7.0672389-5.231189 13.7625179-6.883144 20.0858369s-2.661482 11.437768-3.028583 15.343348h-1.376629c-.367101-3.90558-1.330741-8.787554-2.890921-14.645923-1.560179-5.858369-3.441572-12.228183-5.644178-19.1094422l-23.40269-62.4892704h15.142917V0H266.851852v36.2660944h15.142917L354.956097 195h50.659941zM655 195v-63.04721h-48.719673v25.944206h-45.058658v-45.472103h53.507156V75.3218884h-53.507156V36.8240343h45.058658v24.8283262H655V0H485.185185v36.8240343h17.741847V157.896996h-17.741847V195H655z" filter="url(#a)" transform="translate(353 331)"/>
      <path fill="#FFF" d="M514.222973 522v-69.184549h-44.766892v33.793991h-34.3745776V371.1244635h14.1228885V336H365v35.1244635h14.6558277V486.609442H365V522h149.222973zm101.791385 0v-35.390558h-16.521115V371.1244635h16.521115V336h-88.467905v35.1244635h16.787584V486.609442h-16.787584V522h88.467905zm138.29772 0l63.952702-151.4077253h13.057011V336h-75.410896v34.5922747h13.856419l-24.248733 58.0085837c-2.842342 6.7410586-5.062922 13.1273246-6.66174 19.1587986-1.598817 6.031473-2.575873 10.909871-2.931165 14.635193h-1.332348c-.355293-3.725322-1.287937-8.381974-2.797931-13.969957-1.509994-5.587983-3.33087-11.663806-5.462627-18.2274681l-22.649915-59.6051502h14.655827V336h-98.32728v34.5922747h14.655828L705.281672 522h49.030406zM996 522v-60.137339h-46.09924v24.746781h-42.635135v-43.37339h50.629223v-35.3905584h-50.629223v-36.7210301h42.635135v23.6824035H996V336H835.318834v35.1244635h16.787585V486.609442h-16.787585V522H996z"/>
    </g>
  </g>
</svg>
