<svg xmlns="http://www.w3.org/2000/svg" viewBox="0 0 1200 630">
  <defs/>
  <defs>
    <filter id="a" width="133.9%" height="213.8%" x="-16.9%" y="-56.9%" filterUnits="objectBoundingBox">
      <feGaussianBlur in="SourceGraphic" stdDeviation="37"/>
    </filter>
  </defs>
  <g fill="none" fill-rule="evenodd">
    <path fill="#FFF" fill-rule="nonzero" stroke="#FFF" d="M148.959 296c1.343 0 1.88-1.857 1.88-4.51 0 0-.269-7.957-.269-17.772 0-13.529 3.224-31.036 9.133-44.3 2.417-5.835 15.04-29.709 16.652-29.709.806 0 1.075 3.449 1.075 4.51-.537 7.427-1.343 19.364-1.343 31.832 0 15.65 1.343 52.522 24.98 52.522 3.76 0 8.326-1.061 13.16-4.51 7.52-5.305 14.773-16.446 14.773-26.26 0-1.327-.537-3.98-2.686-3.98-1.074 0-1.343 1.061-1.343 1.061-2.149 7.162-9.938 19.895-18.802 19.895-7.52 0-8.863-15.385-8.863-28.648 0-18.038 1.611-36.607 4.566-57.563 0-5.57-5.103-6.631-10.475-6.896 0 0-2.149-2.388-4.835-2.388-9.132 0-29.277 38.994-32.768 48.278-.27.53-.538.796-1.075.796-.268 0-.806-.265-.806-1.061 0-7.428 1.075-22.548 2.418-38.463 26.053-24.405 44.318-76.927 44.318-111.676 0-19.364-5.91-33.158-19.07-33.158-15.31 0-36.26 72.682-40.827 138.202l-.806 9.55c-4.028 1.326-10.206 2.652-9.938 2.652 0 .265.806.796 2.686.796 2.418 1.061 1.075 2.653 3.492 3.714.269.265 1.075.53 2.149.53h1.074c-2.954 39.26-6.446 75.6-6.983 85.15 2.417 2.387 12.087 7.162 16.653 10.61.805.53 1.343.796 1.88.796zM155 178c4.513-49.567 17.522-101 26.549-101 2.124 0 3.451 4.264 3.451 10.926 0 20.786-10.354 65.823-30 90.074zm109.757 107c23.308 0 39.383-33.635 39.383-63.562 0-1.589 0-3.443-.268-5.032 6.966-3.178 11.253-7.15 13.128-12.447 0-1.06-.536-1.324-1.607-1.324l-2.564-.004c-9.328-.042-13.233-.568-22.352-7.147-6.162 2.119-15.003 6.621-15.003 6.621 6.965 3.973 9.912 15.096 9.912 27.808 0 21.717-8.84 47.407-21.433 47.407-9.645 0-14.467-14.037-14.467-31.252 0-25.954 11.252-58.53 34.56-58.53 3.752 0 7.77.795 12.057 2.65 0-16.156-10.18-21.188-22.237-21.188C248.414 169 231 206.872 231 239.183c0 24.365 9.913 45.817 33.757 45.817zm71.919-142c8.648 0 14.324-10.173 14.324-19.276 0-7.763-4.054-14.724-13.784-14.724-10 0-16.216 9.638-16.216 18.74 0 8.032 4.595 15.26 15.676 15.26zm-55.852 269c10.107 0 20.48-3.983 29.258-13.277C340.67 366.86 331.095 279.763 342 182.311c-.798-3.983-6.118-5.311-11.437-5.311-6.65 0-13.3 2.124-13.3 6.107 0 0 1.862 51.249 1.862 65.853 0 53.108-4.255 119.226-24.47 140.735-5.054 5.31-11.438 7.7-18.087 7.7-16.225 0-33.514-14.604-33.514-33.988 0-1.062-.532-1.593-1.064-1.593-1.064 0-1.862.796-2.926 1.062-1.064.53-1.064 1.593-1.064 3.452C238 392.616 258.747 412 280.824 412zm107.932-124C408.4 288 423 269.438 423 250.611c0-9.28-2.124-20.153-11.945-20.153-3.186 0-3.186 1.326-3.186 1.591 1.593 5.039 2.39 9.812 2.39 14.32 0 17.235-10.619 29.698-20.972 29.698-8.76 0-16.723-8.485-18.316-30.494 27.873-15.91 40.084-38.184 40.084-54.625 0-12.197-6.637-20.948-18.582-20.948-25.75 0-42.473 35.267-42.473 67.353C350 263.87 361.415 288 388.756 288zM371 234c.532-23.573 9.309-49 21.01-49 2.926 0 3.99 2.649 3.99 5.032 0 12.979-14.362 36.817-25 43.968zm84.67 75c3.484 0 3.752-3.704 3.752-3.704-7.504-11.64-10.184-29.63-10.184-50.266 0-28.836 5.36-62.7 10.988-90.478 20.1-5.027 37.786-11.905 42.342-14.022 0 0 .536-2.116 2.412-5.026.804-1.323 4.02-1.323 4.02-3.175 0-2.116-4.556-2.116-7.772-2.116-4.288 0-19.295 3.174-37.25 5.29 4.02-18.783 7.503-32.54 7.503-35.979 0-5.82-12.595-5.291-18.49-9.26-.269-.264-.805-.264-1.073-.264-1.34 0-2.412 1.058-2.948 1.587-2.948 16.932-5.36 30.16-7.503 45.24h-2.68c-12.328 0-24.387-1.323-33.767-5.292-.536-.793-1.072-1.058-1.608-1.058-1.608 0-2.412 3.969-2.412 6.35 0 14.286 6.164 23.545 20.367 23.545 5.36 0 11.256-.264 17.152-1.323-2.68 21.694-4.556 45.769-4.556 67.462 0 34.657 5.092 64.552 21.707 72.489zm49.086-21C524.4 288 539 269.438 539 250.611c0-9.28-2.124-20.153-11.945-20.153-3.186 0-3.186 1.326-3.186 1.591 1.593 5.039 2.39 9.812 2.39 14.32 0 17.235-10.619 29.698-20.972 29.698-8.76 0-16.723-8.485-18.316-30.494 27.873-15.91 40.084-38.184 40.084-54.625 0-12.197-6.637-20.948-18.582-20.948-25.75 0-42.473 35.267-42.473 67.353C466 263.87 477.415 288 504.756 288zM487 234c.532-23.573 9.309-49 21.01-49 2.926 0 3.99 2.649 3.99 5.032 0 12.979-14.362 36.817-25 43.968zm210.32 59c13.022 0 26.842-3.71 39.333-10.598C756.851 271.009 772 249.547 772 216.957c0-2.384-1.86-2.914-2.126-5.564.266-1.855.531-3.18.531-4.24 0-2.119-.531-2.649-1.328-2.649-1.063 0-2.127 1.06-2.127 1.06-12.756 28.086-49.964 71.539-85.31 71.539-17.01 0-22.325-19.342-22.325-41.069 0-21.726 5.316-46.102 10.1-56.436.265-.53.265-.795.265-1.324 0-3.18-9.302-9.274-12.225-9.274-.797 0-1.329.265-2.126.795-15.415 14.573-27.906 60.145-36.41 78.692 1.86-9.538 2.126-24.376 2.126-54.051 0-10.863-3.19-16.957-14.617-16.957-9.568 0-19.933 27.29-28.703 63.324 2.126-11.658 4.252-25.435 4.252-37.359 0-15.102-3.454-26.76-14.085-26.76-14.086 0-24.45 12.188-31.892 26.23 0 3.445 2.923 4.24 5.05 4.24 1.063 0 1.86-.265 1.86-.265 6.113-11.393 13.022-18.812 17.275-18.812 3.189 0 4.518 6.094 4.518 15.102 0 23.052-7.708 64.915-8.505 70.744.266 6.624 7.176 11.128 13.288 11.128 4.519 0 8.24-2.384 8.24-8.213 5.58-46.103 16.477-79.223 23.12-79.223 1.595 0 2.393 10.334 2.393 23.847 0 20.666-1.595 48.752-2.658 58.29v.265c0 3.71 7.707 3.71 14.351 3.71 2.127 0 3.987-.795 3.987-2.65 5.847-17.487 14.883-58.556 22.59-71.274-.532 5.565-1.063 11.129-1.063 16.163 0 41.068 20.464 67.034 56.874 67.034z"/>
    <ellipse cx="372.5" cy="405" fill="red" rx="27.5" ry="27"/>
    <g fill-rule="nonzero">
      <path fill="red" d="M155.26 195v-72.532H108.68v35.429H72.916V36.824h14.695V0H0v36.824h15.249v121.073H0V195h155.26zM262 195v-37.103h-17.215V36.824H262V0h-92.185v36.824h17.493v121.073h-17.493V195H262zm143.616 0l66.078-158.734h13.491V0h-77.917v36.266h14.317L396.53 97.082c-2.937 7.067-5.23 13.762-6.883 20.085-1.652 6.324-2.661 11.438-3.028 15.344h-1.377c-.367-3.906-1.33-8.788-2.891-14.646-1.56-5.859-3.442-12.228-5.644-19.11l-23.403-62.489h15.143V0H266.852v36.266h15.143L354.956 195h50.66zM655 195v-63.047h-48.72v25.944h-45.058v-45.472h53.507V75.322h-53.507V36.824h45.058v24.828H655V0H485.185v36.824h17.742v121.073h-17.742V195H655z" filter="url(#a)" transform="translate(418 305)"/>
      <path fill="#FFF" d="M579.223 496v-69.185h-44.767v33.794h-34.374V345.124h14.122V310H430v35.124h14.656V460.61H430V496h149.223zm101.791 0v-35.39h-16.52V345.123h16.52V310h-88.468v35.124h16.788V460.61h-16.788V496h88.468zm138.298 0l63.953-151.408h13.057V310H820.91v34.592h13.856l-24.248 58.009c-2.843 6.74-5.063 13.127-6.662 19.159-1.599 6.031-2.576 10.91-2.931 14.635h-1.333c-.355-3.725-1.288-8.382-2.798-13.97-1.51-5.588-3.33-11.664-5.462-18.228l-22.65-59.605h14.656V310H685.01v34.592h14.656L770.282 496h49.03zM1061 496v-60.137h-46.1v24.746h-42.634v-43.373h50.629v-35.39h-50.63v-36.722h42.636v23.683H1061V310H900.319v35.124h16.787V460.61H900.32V496H1061z"/>
    </g>
    <text fill="#FFF" font-family="HipsterScriptPro, Hipster Script Pro" font-size="40">
      <tspan x="699.5" y="552">por Matheus Albuquerque</tspan>
    </text>
  </g>
</svg>
