<?xml version="1.0" encoding="UTF-8"?>
<svg width="512px" height="512px" viewBox="0 0 512 512" version="1.1" xmlns="http://www.w3.org/2000/svg" xmlns:xlink="http://www.w3.org/1999/xlink">
    <!-- Generator: Sketch 64 (93537) - https://sketch.com -->
    <title>axe</title>
    <desc>Created with Sketch.</desc>
    <g id="axe" stroke="none" stroke-width="1" fill="none" fill-rule="evenodd">
        <g transform="translate(0.000000, 30.000000)" fill="#FFFFFF" id="Shape">
            <path d="M17.4217722,47.36 C17.4217722,47.36 0,77.4888641 0,116.656387 C0,155.823911 9.08962025,282.36514 33.3286076,356.180857 C57.5675949,429.996574 68.1721519,451.84 68.1721519,451.84 C102.258228,451.84 137.101772,451.84 171.187848,451.84 C171.187848,451.84 181.792405,429.996574 206.031392,356.180857 C230.27038,282.36514 239.36,155.823911 239.36,116.656387 C239.36,77.4888641 221.938228,47.36 221.938228,47.36 L17.4217722,47.36 Z M306.750534,0 L477.889466,0 C483.947481,0 490.005496,4.38857143 491.52,10.24 L293.12,10.24 C294.634504,4.38857143 300.692519,0 306.750534,0 Z M292.917895,14.08 L493.002105,14.08 C501.338947,14.08 508.16,20.8738462 508.16,28.4225641 L508.16,43.52 L277.76,43.52 L277.76,28.4225641 C277.76,20.8738462 284.581053,14.08 292.917895,14.08 Z M290.761893,47.36 C290.761893,47.36 272.64,77.4888641 272.64,116.656387 C272.64,155.823911 281.700946,282.36514 306.618549,356.180857 C330.781073,429.996574 341.352177,451.84 341.352177,451.84 C375.330726,451.84 409.309274,451.84 444.042902,451.84 C444.042902,451.84 454.614006,429.996574 478.77653,356.180857 C502.939054,282.36514 512,155.823911 512,116.656387 C512,77.4888641 493.878107,47.36 493.878107,47.36 L290.761893,47.36 Z M326.912,49.92 L343.808,49.92 L343.808,161.954409 C347.648,164.982366 350.72,169.524301 350.72,174.823226 C350.72,183.907097 343.808,190.72 335.36,190.72 C326.912,190.72 320,183.907097 320,174.823226 C320,169.524301 323.072,164.982366 326.912,161.954409 L326.912,49.92 Z M440.713846,49.92 L456.566154,49.92 L456.566154,161.954409 C461.095385,164.982366 463.36,169.524301 463.36,174.823226 C463.36,183.907097 456.566154,190.72 448.262564,190.72 C440.713846,190.72 433.92,183.907097 433.92,174.823226 C433.92,169.524301 436.184615,164.982366 440.713846,161.954409 L440.713846,49.92 Z M34.8130798,0 L204.54692,0 C211.336274,0 216.616882,4.38857143 218.88,10.24 L20.48,10.24 C21.9887452,4.38857143 28.0237262,0 34.8130798,0 Z M19.4872607,14.08 L219.116568,14.08 C227.434455,14.08 234.24,20.8738462 234.24,28.4225641 L234.24,43.52 L5.12,43.52 L5.12,28.4225641 C5.12,20.8738462 11.1693729,14.08 19.4872607,14.08 Z M54.6789744,49.92 L71.2861538,49.92 L71.2861538,161.954409 C75.0605128,164.982366 78.08,169.524301 78.08,174.823226 C78.08,183.907097 71.2861538,190.72 62.9825641,190.72 C54.6789744,190.72 48.64,183.907097 48.64,174.823226 C48.64,169.524301 50.9046154,164.982366 54.6789744,161.954409 L54.6789744,49.92 Z M166.793846,49.92 L182.646154,49.92 L182.646154,161.954409 C187.175385,164.982366 189.44,169.524301 189.44,174.823226 C189.44,183.907097 183.401026,190.72 175.097436,190.72 C166.793846,190.72 160,183.907097 160,174.823226 C160,169.524301 163.019487,164.982366 166.793846,161.954409 L166.793846,49.92 Z"></path>
        </g>
    </g>
</svg>