<?xml version="1.0" encoding="UTF-8"?>
<svg width="512px" height="512px" viewBox="0 0 512 512" version="1.1" xmlns="http://www.w3.org/2000/svg" xmlns:xlink="http://www.w3.org/1999/xlink">
    <!-- Generator: Sketch 64 (93537) - https://sketch.com -->
    <title>dj</title>
    <desc>Created with Sketch.</desc>
    <g id="dj" stroke="none" stroke-width="1" fill="none" fill-rule="evenodd">
        <g transform="translate(4.000000, 0.000000)" fill="#FFFFFF" fill-rule="nonzero" id="Shape">
            <path d="M482.684744,0 L21.907219,0 C9.83095596,0 0,9.83597034 0,21.9309465 L0,490.069054 C0,502.158396 9.82532863,512 21.907219,512 L482.690371,512 C494.766634,512 504.59759,502.16403 504.59759,490.069054 L504.59759,21.925313 C504.591963,9.83597034 494.766634,0 482.684744,0 Z M177.503059,279.367471 L198.397357,279.367471 L198.397357,142.891975 C198.397357,140.965341 199.95613,139.404881 201.880678,139.404881 C203.805227,139.404881 205.363999,140.965341 205.363999,142.891975 L205.363999,279.373105 L226.258298,279.373105 C248.165517,279.373105 248.165517,302.126532 248.165517,302.126532 C248.165517,314.215875 238.340188,324.057479 226.258298,324.057479 L205.363999,324.057479 L205.363999,460.527342 C205.363999,462.453975 203.805227,464.014436 201.880678,464.014436 C199.95613,464.014436 198.397357,462.453975 198.397357,460.527342 L198.397357,324.051845 L177.503059,324.051845 C155.59584,324.051845 155.59584,301.309685 155.59584,301.309685 C155.59584,289.214709 165.426796,279.367471 177.503059,279.367471 Z M176.996599,82.8283344 C176.996599,65.2238629 191.295659,50.8980481 208.881084,50.8980481 C226.466509,50.8980481 240.776825,65.2238629 240.776825,82.8283344 C240.776825,100.421539 226.466509,114.747354 208.881084,114.747354 C191.295659,114.747354 176.996599,100.421539 176.996599,82.8283344 Z M80.4877866,425.200097 C55.924465,425.200097 58.5805676,402.446669 58.5805676,402.446669 C58.5805676,390.357327 68.4058962,380.504456 80.4877866,380.504456 L101.382085,380.504456 L101.382085,142.886341 C101.382085,140.959708 102.940857,139.399247 104.865406,139.399247 C106.789955,139.399247 108.348727,140.959708 108.348727,142.886341 L108.348727,380.504456 L129.243026,380.504456 C154.346571,380.504456 151.150245,403.257884 151.150245,403.257884 C151.150245,415.347226 145.928077,425.431067 129.243026,425.200097 L108.348727,425.200097 L108.348727,460.521709 C108.348727,462.448342 106.789955,464.008802 104.865406,464.008802 C102.940857,464.008802 101.382085,462.448342 101.382085,460.521709 L101.382085,425.200097 L80.4877866,425.200097 Z M73.1891318,87.2505776 C75.1136807,87.2505776 76.6724528,85.6901173 76.6724528,83.7634839 L76.6724528,57.5567634 C76.6724528,57.2581916 76.6274341,56.9708866 76.5542787,56.7004819 L92.654087,56.7004819 C92.5865589,56.97652 92.5359129,57.263825 92.5359129,57.5567634 L92.5359129,83.7634839 C92.5359129,85.6901173 94.094685,87.2505776 96.0192339,87.2505776 C97.9437828,87.2505776 99.5025549,85.6901173 99.5025549,83.7634839 L99.5025549,57.5567634 C99.5025549,57.2581916 99.4575362,56.9708866 99.3843808,56.7004819 L117.774515,56.7004819 C117.695732,56.97652 117.656341,57.263825 117.656341,57.5567634 L117.656341,83.7634839 C117.656341,85.6901173 119.203858,87.2505776 121.128407,87.2505776 C123.064211,87.2505776 124.622983,85.6901173 124.622983,83.7634839 L124.622983,57.5567634 C124.622983,57.2581916 124.566709,56.9708866 124.504809,56.7004819 L134.712796,56.7004819 C142.945589,56.7004819 149.647746,63.3986313 149.647746,71.6516075 L149.647746,95.8697269 C149.647746,104.122703 142.945589,110.832119 134.712796,110.832119 L57.415709,110.832119 C49.1716618,110.832119 42.4807593,104.122703 42.4807593,95.8697269 L42.4807593,71.6516075 C42.4807593,63.3986313 49.1716618,56.7004819 57.415709,56.7004819 L69.8239849,56.7004819 C69.7564569,56.97652 69.7058108,57.263825 69.7058108,57.5567634 L69.7058108,83.7634839 C69.7058108,85.6901173 71.2645829,87.2505776 73.1891318,87.2505776 Z M279.937456,275.486037 C258.018982,275.486037 258.018982,252.73261 258.018982,252.73261 C258.018982,240.643267 267.844311,230.801664 279.937456,230.801664 L299.160436,230.801664 L299.160436,142.891975 C299.160436,140.965341 300.719208,139.404881 302.643757,139.404881 C304.568305,139.404881 306.127078,140.965341 306.127078,142.891975 L306.127078,230.801664 L328.68144,230.801664 C340.768958,230.801664 350.599914,240.637634 350.599914,252.73261 C350.599914,252.73261 350.599914,275.486037 328.68144,275.486037 L306.127078,275.486037 L306.127078,460.521709 C306.127078,462.448342 304.568305,464.008802 302.643757,464.008802 C300.719208,464.008802 299.160436,462.448342 299.160436,460.521709 L299.160436,275.486037 L279.937456,275.486037 Z M289.368871,114.747354 C271.783446,114.747354 257.473131,100.421539 257.473131,82.8283344 C257.473131,65.2238629 271.783446,50.8980481 289.368871,50.8980481 C306.954296,50.8980481 321.253357,65.2238629 321.253357,82.8283344 C321.253357,100.421539 306.954296,114.747354 289.368871,114.747354 Z M425.994961,166.248179 C438.071224,166.248179 444.582052,172.298484 444.582052,184.39346 C444.582052,184.39346 447.90218,210.932553 425.994961,210.932553 L405.100663,210.932553 L405.100663,460.521709 C405.100663,462.448342 403.541891,464.008802 401.617342,464.008802 C399.692793,464.008802 398.134021,462.448342 398.134021,460.521709 L398.134021,210.932553 L377.239722,210.932553 C355.332503,210.932553 355.332503,188.179125 355.332503,188.179125 C355.332503,176.089783 365.157832,166.248179 377.239722,166.248179 L398.134021,166.248179 L398.134021,142.891975 C398.134021,140.965341 399.692793,139.404881 401.617342,139.404881 C403.541891,139.404881 405.100663,140.965341 405.100663,142.891975 L405.100663,166.248179 L425.994961,166.248179 Z M464.727915,95.8640935 C464.727915,107.964703 454.902586,117.806307 442.820696,117.806307 L365.534864,117.806307 C353.4586,117.806307 343.627645,107.970336 343.627645,95.8640935 L343.627645,71.6459741 C343.627645,59.5566314 353.452973,49.7150276 365.534864,49.7150276 L442.820696,49.7150276 C454.896959,49.7150276 464.727915,59.550998 464.727915,71.6459741 L464.727915,95.8640935 Z M457.761273,71.6459741 L457.761273,95.8640935 C457.761273,104.11707 451.059116,110.826486 442.826323,110.826486 L365.534864,110.826486 C357.302071,110.826486 350.599914,104.11707 350.599914,95.8640935 L350.599914,71.6459741 C350.599914,63.3929978 357.302071,56.6948485 365.534864,56.6948485 L442.820696,56.6948485 C451.053488,56.6948485 457.761273,63.3986313 457.761273,71.6459741 Z M183.963241,82.8283344 C183.963241,69.0658627 195.13913,57.8722355 208.881084,57.8722355 C222.623039,57.8722355 233.810183,69.0602293 233.810183,82.8283344 C233.810183,96.5795392 222.623039,107.773166 208.881084,107.773166 C195.13913,107.773166 183.963241,96.5795392 183.963241,82.8283344 Z M314.286715,82.8283344 C314.286715,96.5795392 303.110825,107.773166 289.368871,107.773166 C275.621289,107.773166 264.439773,96.5851726 264.439773,82.8283344 C264.439773,69.0658627 275.615662,57.8722355 289.368871,57.8722355 C303.105198,57.8722355 314.286715,69.0602293 314.286715,82.8283344 Z"></path>
        </g>
    </g>
</svg>