<?xml version="1.0" encoding="UTF-8"?>
<svg width="512px" height="512px" viewBox="0 0 512 512" version="1.1" xmlns="http://www.w3.org/2000/svg" xmlns:xlink="http://www.w3.org/1999/xlink">
    <!-- Generator: Sketch 64 (93537) - https://sketch.com -->
    <title>forro</title>
    <desc>Created with Sketch.</desc>
    <g id="forro" stroke="none" stroke-width="1" fill="none" fill-rule="evenodd">
        <g transform="translate(0.000000, 45.000000)" fill="#FFFFFF" fill-rule="nonzero" id="Group">
            <g>
                <g>
                    <ellipse id="Oval" transform="translate(377.680117, 49.593105) rotate(-0.503352) translate(-377.680117, -49.593105) " cx="377.680117" cy="49.5931054" rx="45.7560499" ry="48.451897"></ellipse>
                    <ellipse id="Oval" transform="translate(132.489670, 49.448898) rotate(-89.495123) translate(-132.489670, -49.448898) " cx="132.48967" cy="49.4488985" rx="48.4519057" ry="45.7560619"></ellipse>
                    <path d="M508.241663,193.809451 L495.852725,175.003284 C478.077292,147.648858 452.222116,127.133039 422.057745,117.445013 C408.591508,112.885942 395.12527,111.176291 381.120384,111.176291 L369.808744,111.176291 C361.729002,111.176291 353.64926,110.036523 345.569517,107.756987 L340.183022,106.047336 C320.252991,100.918381 302.477558,88.3809361 289.54997,71.2844201 L271.235888,47.3492978 C263.156145,37.0913882 246.458011,37.0913882 238.916918,47.3492978 L220.602836,71.2844201 C207.675248,88.3809361 189.899815,100.348497 169.969784,106.047336 L164.583289,107.756987 C156.503546,110.036523 148.423804,111.176291 139.805412,111.176291 C122.029979,111.176291 104.254546,109.466639 87.0177622,106.047336 L78.3993704,104.337684 C71.9355765,103.197917 66.5490816,99.2087295 63.3171847,92.940007 L39.6166071,45.0697623 C34.2301122,34.2419689 21.3025245,30.2527818 11.0681842,35.9516205 C0.833843858,41.6504591 -2.93670257,55.3276719 2.44979233,66.1554653 L26.6890194,114.02571 C35.8460607,132.261994 52.0055454,144.229555 71.396927,148.218742 L80.0153189,149.928394 C83.2472158,150.498277 85.9404633,151.068161 89.1723602,151.638045 L89.1723602,254.787025 C89.1723602,257.636444 89.7110097,260.485863 90.2496592,262.765399 L108.025092,318.044134 L56.8533908,377.88194 C47.6963495,388.139849 48.7736485,404.096597 58.4693393,413.784623 C63.3171847,418.343694 68.7036796,420.623229 74.628824,420.623229 C81.0926179,420.623229 87.5564117,417.77381 92.4042571,412.074971 L146.807856,348.247979 C156.503546,337.420185 159.196794,321.463437 154.887598,307.21634 L147.346505,282.711334 L191.515763,327.162276 L196.902258,396.688107 C197.979557,409.795436 208.213897,420.053346 220.602836,420.053346 C221.141485,420.053346 221.680135,420.053346 222.757434,420.053346 C235.685021,418.913578 245.919362,406.376133 244.842063,392.69892 L239.455568,322.033321 C238.378269,310.06576 233.530423,299.237966 225.450681,291.259592 L178.049526,243.959231 L178.049526,149.928394 L180.204124,149.35851 C208.752547,141.380136 234.607722,124.28362 253.460455,99.7786134 L255.615053,96.929194 L257.769651,99.7786134 C276.083733,123.713736 302.477558,141.380136 331.025981,149.35851 L333.180579,149.928394 L333.180579,245.098999 L293.859166,292.39936 C285.779424,302.087386 282.008878,315.194714 284.702125,328.302043 L297.091063,399.537526 C299.245661,411.505088 309.480002,420.053346 320.791641,420.053346 C322.407589,420.053346 323.484888,420.053346 325.100837,419.483462 C338.028425,417.203926 346.646816,403.526714 344.492218,389.849501 L331.564631,323.173089 L373.040641,273.593192 L371.963342,313.485063 C371.424693,326.592392 375.733889,339.129837 384.352281,348.817862 L438.755879,412.074971 C443.603725,417.77381 450.067518,420.623229 456.531312,420.623229 C462.456457,420.623229 467.842952,418.343694 472.690797,413.784623 C482.386488,404.096597 483.463787,388.139849 474.306745,377.88194 L420.441796,315.194714 L422.596394,254.787025 L422.596394,164.745374 C438.755879,172.723748 452.222116,184.691309 462.456457,200.078174 L474.845395,218.884341 C479.154591,225.153064 485.618385,228.572367 492.082179,228.572367 C496.391375,228.572367 500.161921,227.432599 503.932467,224.58318 C512.550859,217.744573 514.705457,204.067361 508.241663,193.809451 Z" id="Path"></path>
                </g>
            </g>
        </g>
    </g>
</svg>