<?xml version="1.0" encoding="UTF-8"?>
<svg width="512px" height="512px" viewBox="0 0 512 512" version="1.1" xmlns="http://www.w3.org/2000/svg" xmlns:xlink="http://www.w3.org/1999/xlink">
    <!-- Generator: Sketch 64 (93537) - https://sketch.com -->
    <title>funk</title>
    <desc>Created with Sketch.</desc>
    <g id="funk" stroke="none" stroke-width="1" fill="none" fill-rule="evenodd">
        <g transform="translate(0.000000, 53.000000)" fill="#FFFFFF" fill-rule="nonzero" id="Shape">
            <path d="M332.053586,33.9425882 L179.542947,33.9425882 L179.542947,82.432 L332.053586,82.432 L332.053586,33.9425882 Z M365.944838,82.432 L512,82.432 L512,404.078431 L0,404.078431 L0,82.432 L146.055162,82.432 L146.055162,0 L365.944838,0 L365.944838,82.432 Z M33.891253,370.135843 L478.512214,370.135843 L478.512214,116.374588 L33.891253,116.374588 L33.891253,370.135843 Z M448.252167,160.015059 L63.3443656,160.015059 L63.3443656,143.043765 L448.252167,143.043765 L448.252167,160.015059 Z M448.252167,343.062588 L63.3443656,343.062588 L63.3443656,326.091294 L448.252167,326.091294 L448.252167,343.062588 Z M123.057526,301.846588 C90.7801418,301.846588 64.5547675,275.58149 64.5547675,243.255216 C64.5547675,210.928941 90.7801418,184.663843 123.057526,184.663843 C155.334909,184.663843 181.560284,210.928941 181.560284,243.255216 C181.560284,275.58149 155.334909,301.846588 123.057526,301.846588 Z M388.942474,301.846588 C356.665091,301.846588 330.439716,275.58149 330.439716,243.255216 C330.439716,210.928941 356.665091,184.663843 388.942474,184.663843 C421.219858,184.663843 447.445232,210.928941 447.445232,243.255216 C447.445232,275.58149 421.219858,301.846588 388.942474,301.846588 Z M309.862884,300.634353 L201.733649,300.634353 L201.733649,238.810353 L309.862884,238.810353 L309.862884,300.634353 Z M218.679275,283.663059 L293.320725,283.663059 L293.320725,255.377569 L218.679275,255.377569 L218.679275,283.663059 Z M219.082742,219.01051 L202.137116,219.01051 L202.137116,185.876078 L219.082742,185.876078 L219.082742,219.01051 Z M264.27108,219.01051 L247.325453,219.01051 L247.325453,185.876078 L264.27108,185.876078 L264.27108,219.01051 Z M309.862884,219.01051 L292.917258,219.01051 L292.917258,185.876078 L309.862884,185.876078 L309.862884,219.01051 Z"></path>
        </g>
    </g>
</svg>