<?xml version="1.0" encoding="UTF-8"?>
<svg width="512px" height="512px" viewBox="0 0 512 512" version="1.1" xmlns="http://www.w3.org/2000/svg" xmlns:xlink="http://www.w3.org/1999/xlink">
    <!-- Generator: Sketch 64 (93537) - https://sketch.com -->
    <title>gospel</title>
    <desc>Created with Sketch.</desc>
    <g id="gospel" stroke="none" stroke-width="1" fill="none" fill-rule="evenodd">
        <g id="Group" transform="translate(43.000000, 0.000000)" fill="#FFFFFF" fill-rule="nonzero">
            <path d="M406.052028,268.049318 C394.847661,249.660093 380.442046,245.662435 370.838303,245.662435 C346.028632,245.662435 332.423329,266.450255 321.218962,272.046975 C241.187767,320.018867 100.332865,173.704598 181.164371,10.6001669 C182.764995,8.20157232 181.964683,5.00344622 180.364059,2.60485164 C178.763435,0.20625707 175.562188,-0.593274454 172.36094,0.20625707 C168.35938,1.00578859 71.5216345,28.1898604 40.3094686,98.5486346 C29.1051013,124.933175 28.3047894,152.916778 37.9085327,183.298976 L25.1035416,173.704598 C22.7026057,172.105535 19.5013579,171.306003 16.3001102,173.704598 C13.8991743,175.303661 12.2985504,178.501787 13.0988624,181.699913 C13.0988624,183.298976 19.5013579,214.480706 39.5091566,238.466651 L34.7072849,237.66712 C32.3063491,236.867588 29.9054133,237.66712 27.5044774,240.065714 C25.9038535,241.664777 25.1035416,244.063372 25.1035416,247.261498 C25.1035416,248.06103 29.9054133,270.447912 58.7166434,286.438543 L49.9132119,287.238074 C47.5122761,288.037606 45.1113403,289.636669 44.3110283,292.035264 C43.5107164,294.433858 43.5107164,296.832453 45.1113403,299.231047 C46.7119641,301.629642 81.1253779,355.997785 138.747838,370.389353 C93.930369,385.580452 29.9054133,406.368272 8.29699069,406.368272 L7.49667874,406.368272 C3.495119,406.368272 0.293871214,408.766866 -0.506440734,411.964992 C-1.30675268,415.96265 0.293871214,419.160776 3.495119,420.759839 L31.5060372,433.552343 L15.4997982,449.542974 C13.0988624,451.941568 12.2985504,455.139695 13.8991743,458.337821 C15.4997982,461.535947 18.701046,463.13501 21.9022938,462.335478 L47.5122761,458.337821 L43.5107164,477.526577 C42.7104044,480.724703 43.5107164,483.123298 45.9116522,485.521892 C48.312588,487.120955 51.5138358,487.920487 53.9147717,487.120955 L72.3219465,479.12564 L73.1222584,493.517208 C73.1222584,496.715334 75.5231942,499.113928 77.9241301,500.712991 C78.724442,501.512523 105.134736,511.906433 137.147214,511.906433 C163.557508,511.906433 185.966243,504.710649 204.373418,489.51955 C207.574666,487.120955 208.374977,482.323766 205.974042,479.12564 C205.17373,477.526577 184.365619,448.743442 203.573106,411.165461 C210.775913,410.365929 225.181528,408.766866 243.588703,405.56874 C296.409292,395.974362 343.627697,363.993101 376.440486,316.021209 C393.247037,291.235732 408.452964,299.231047 416.456084,299.231047 C420.457643,299.231047 424.459203,296.032921 424.459203,291.235732 C423.658891,284.039948 415.655772,283.240417 406.052028,268.049318 Z M363.827624,285.847953 C358.887273,285.847953 355.593706,281.730994 355.593706,277.614035 C355.593706,272.673684 359.710665,269.380117 363.827624,269.380117 C368.767975,269.380117 372.061542,273.497076 372.061542,277.614035 C372.061542,282.554386 368.767975,285.847953 363.827624,285.847953 Z" id="Shape"></path>
            <path d="M342.195686,238.474554 C323.741358,246.475976 319.729547,266.479532 289.239788,266.479532 C261.157114,266.479532 229.06263,245.675834 206.596491,213.670144 C209.003578,168.062036 225.853182,95.2490914 291.646874,40.8394187 C294.05396,38.4389919 297.263409,38.4389919 300.472857,40.0392764 C302.879943,41.6395609 304.484668,44.8401299 304.484668,48.0406989 L300.472857,64.0435438 L311.705926,59.2426903 C314.915375,57.6424058 318.124823,58.4425481 320.53191,60.8429748 C322.938996,63.2434016 323.741358,66.4439705 322.136634,69.6445395 C322.136634,69.6445395 315.717737,85.6473845 317.322461,108.85151 C318.124823,123.25407 322.938996,138.456773 332.567341,153.659475 C342.998048,170.462463 357.440566,202.468152 342.195686,238.474554 Z" id="Path"></path>
        </g>
    </g>
</svg>