<?xml version="1.0" encoding="UTF-8"?>
<svg width="512px" height="512px" viewBox="0 0 512 512" version="1.1" xmlns="http://www.w3.org/2000/svg" xmlns:xlink="http://www.w3.org/1999/xlink">
    <!-- Generator: Sketch 64 (93537) - https://sketch.com -->
    <title>internacional</title>
    <desc>Created with Sketch.</desc>
    <g id="internacional" stroke="none" stroke-width="1" fill="none" fill-rule="evenodd">
        <g transform="translate(0.000000, 3.000000)" fill="#FFFFFF" id="Shape">
            <path d="M0,255.669918 C3.32118003,109.572822 112.920121,0 259.052043,0 C371.972164,0 458.322844,69.7281595 498.177005,172.660204 C524.746445,249.029141 511.461725,322.077689 471.607565,388.48546 C408.505144,491.417505 285.621483,534.582556 172.701362,494.737893 C99.635401,471.495174 43.1753404,418.368957 16.6059002,348.640797 L16.6059002,345.320409 C6.64236006,315.436912 0,285.553415 0,255.669918 Z M281.754478,298.96146 C275.099921,295.64016 271.772642,302.28276 271.772642,295.64016 C271.772642,288.997559 255.136249,305.604061 255.136249,305.604061 C251.80897,305.604061 248.481692,305.604061 245.154413,305.604061 L241.827134,305.604061 C235.172577,305.604061 231.845298,305.604061 228.51802,298.96146 C225.190741,288.997559 238.499856,282.354958 218.536184,279.033657 C208.554348,279.033657 211.881626,272.391056 215.208905,265.748456 C218.536184,259.105855 218.536184,255.784554 211.881626,255.784554 C205.227069,259.105855 201.89979,275.712357 191.917954,269.069756 C171.954282,259.105855 178.60884,212.607648 205.227069,225.89285 C215.208905,229.214151 201.89979,215.928949 228.51802,222.57155 C238.499856,225.89285 231.845298,239.178052 241.827134,239.178052 C248.481692,242.499352 238.499856,222.57155 238.499856,219.250249 C241.827134,209.286348 261.790806,205.965048 255.136249,192.679846 C255.136249,189.358545 255.136249,189.358545 255.136249,186.037245 C258.463528,182.715944 255.136249,196.001146 261.790806,182.715944 C268.445364,172.752043 271.772642,179.394644 275.099921,169.430743 C275.099921,162.788142 291.736315,152.82424 291.736315,159.466841 C288.409036,166.109442 301.718151,156.145541 301.718151,156.145541 C298.390872,152.82424 291.736315,152.82424 291.736315,146.181639 C285.081757,136.217738 275.099921,152.82424 275.099921,149.50294 C271.772642,142.860339 288.409036,139.539039 291.736315,136.217738 C325.009101,129.575137 308.372708,122.932536 291.736315,106.326034 C275.099921,86.3982314 281.754478,109.647335 271.772642,96.3621328 C258.463528,79.7556306 248.481692,86.3982314 251.80897,106.326034 C255.136249,109.647335 255.136249,112.968635 248.481692,116.289935 C248.481692,116.289935 248.481692,119.611236 248.481692,122.932536 C248.481692,136.217738 241.827134,139.539039 241.827134,122.932536 C241.827134,112.968635 235.172577,119.611236 225.190741,112.968635 C211.881626,106.326034 201.89979,103.004734 218.536184,86.3982314 C231.845298,73.1130297 241.827134,86.3982314 241.827134,69.7917292 C241.827134,59.8278279 245.154413,59.8278279 238.499856,63.1491283 C228.51802,63.1491283 228.51802,46.5426261 221.863462,56.5065274 C211.881626,63.1491283 208.554348,63.1491283 198.572512,63.1491283 C181.936118,66.4704288 185.263397,53.185227 165.299725,53.185227 C148.663332,56.5065274 151.99061,49.8639265 142.008774,49.8639265 C125.372381,49.8639265 125.372381,63.1491283 115.390545,63.1491283 C105.408709,66.4704288 112.063266,66.4704288 105.408709,73.1130297 L105.408709,73.1130297 C98.7541517,76.4343301 88.7723157,83.076931 92.0995944,93.0408323 C95.426873,96.3621328 62.1540863,106.326034 78.7904797,103.004734 C98.7541517,99.6834332 98.7541517,89.7195319 108.735988,86.3982314 C122.045102,83.076931 122.045102,103.004734 122.045102,112.968635 C122.045102,116.289935 122.045102,119.611236 125.372381,126.253837 C128.69966,146.181639 125.372381,132.896438 122.045102,132.896438 C122.045102,132.896438 122.045102,142.860339 118.717824,149.50294 C115.390545,159.466841 108.735988,172.752043 115.390545,182.715944 C118.717824,186.037245 118.717824,192.679846 122.045102,199.322447 C125.372381,209.286348 125.372381,212.607648 128.69966,225.89285 C128.69966,232.535451 132.026938,232.535451 135.354217,239.178052 C135.354217,242.499352 142.008774,252.463254 138.681496,239.178052 C132.026938,215.928949 128.69966,202.643747 142.008774,232.535451 C148.663332,242.499352 151.99061,245.820653 155.317889,255.784554 C158.645168,265.748456 171.954282,275.712357 185.263397,275.712357 C195.245233,279.033657 195.245233,282.354958 208.554348,285.676258 C225.190741,292.318859 215.208905,298.96146 225.190741,305.604061 C235.172577,312.246662 231.845298,312.246662 241.827134,308.925361 C258.463528,312.246662 251.80897,325.531864 245.154413,335.495765 C235.172577,348.780967 245.154413,345.459666 241.827134,348.780967 C238.499856,358.744868 245.154413,368.708769 251.80897,375.35137 C271.772642,405.243074 281.754478,398.600473 271.772642,441.777379 C268.445364,451.741281 255.136249,478.311684 265.118085,484.954285 C265.118085,484.954285 278.4272,491.596886 275.099921,488.275585 C275.099921,481.632985 278.4272,474.990384 281.754478,468.347783 C288.409036,458.383881 281.754478,465.026482 295.063593,458.383881 C298.390872,455.062581 308.372708,451.741281 308.372708,448.41998 C308.372708,445.09868 318.354544,441.777379 321.681823,441.777379 C334.990937,431.813478 338.318216,418.528276 354.954609,408.564375 C371.591003,401.921774 368.263724,398.600473 378.24556,381.993971 C381.572839,375.35137 394.881953,355.423568 391.554675,348.780967 C384.900117,342.138366 364.936445,342.138366 351.627331,335.495765 C341.645495,328.853164 344.972773,322.210563 328.33638,315.567962 C311.699987,305.604061 315.027265,302.28276 295.063593,298.96146 C291.736315,298.96146 288.409036,298.96146 281.754478,298.96146 Z M417.838059,89.8323056 C424.331601,96.510332 417.838059,89.8323056 427.578371,96.510332 C434.071913,103.188358 424.331601,89.8323056 424.331601,89.8323056 C424.331601,89.8323056 395.110665,59.781187 404.850977,76.4762529 C408.097747,83.1542793 411.344518,86.4932925 417.838059,89.8323056 Z M319.425272,82.5985691 C326.04359,89.2631266 335.971066,95.9276841 332.661907,82.5985691 C329.352748,62.6048967 332.661907,72.6017329 335.971066,65.9371754 C339.280224,59.2726179 349.2077,55.9403392 339.280224,52.6080604 C329.352748,42.6112242 329.352748,35.9466667 312.806955,25.9498305 C302.879479,19.285273 273.097051,12.6207155 263.169575,22.6175517 C259.860416,29.2821092 276.40621,35.9466667 283.024527,39.2789455 C306.188638,55.9403392 302.879479,65.9371754 319.425272,82.5985691 Z M243.200716,30.1285579 C249.676597,36.8469596 256.152479,26.769357 259.39042,20.0509553 C262.628361,13.3325536 252.914538,16.6917545 249.676597,20.0509553 C239.962775,23.4101562 236.724834,16.6917545 243.200716,26.769357 C243.200716,26.769357 243.200716,30.1285579 243.200716,30.1285579 Z M452.085445,285.96982 C458.710749,299.294881 458.710749,302.626146 468.648706,295.963616 C475.274011,292.63235 475.274011,282.638554 485.211968,292.63235 C491.837273,295.963616 485.211968,302.626146 485.211968,309.288677 C485.211968,329.27627 491.837273,279.307289 491.837273,279.307289 C495.149925,252.657166 491.837273,219.344512 485.211968,192.694389 C481.899316,182.700593 478.586663,189.363123 475.274011,179.369327 C471.961359,172.706796 468.648706,172.706796 462.023402,176.038062 C458.710749,182.700593 465.336054,182.700593 455.398097,182.700593 C448.772793,182.700593 448.772793,209.350716 448.772793,216.013246 C442.147488,236.000839 442.147488,229.338308 445.46014,249.3259 C445.46014,275.976023 438.834836,262.650962 452.085445,285.96982 Z M442.110192,169.108997 C448.701033,179.097322 455.291874,182.426763 455.291874,169.108997 C455.291874,165.779555 455.291874,152.461789 455.291874,149.132347 C458.587295,142.473464 461.882715,149.132347 465.178136,155.79123 C484.95066,179.097322 471.768977,155.79123 465.178136,149.132347 C458.587295,142.473464 465.178136,142.473464 465.178136,142.473464 C455.291874,125.826256 432.22393,82.5435146 435.519351,132.485139 C435.519351,142.473464 445.405612,139.144022 438.814771,152.461789 C435.519351,159.120672 438.814771,162.450114 442.110192,169.108997 Z M298.523837,272.230085 C301.382037,268.59902 292.807437,261.336889 295.665637,268.59902 C295.665637,272.230085 295.665637,272.230085 298.523837,272.230085 Z M372.543406,73.5587104 C365.720196,77.0383889 348.662171,63.1196749 358.896986,66.5993534 C365.720196,66.5993534 375.955011,66.5993534 372.543406,73.5587104 Z M412.294737,116.423066 C412.294737,122.880577 421.876023,119.651822 415.488499,113.194311 C412.294737,109.965555 412.294737,113.194311 412.294737,116.423066 Z M421.510265,119.647249 C421.510265,112.907807 408.252632,99.4289237 408.252632,96.0592027 C408.252632,92.6894818 431.453491,112.907807 428.139082,123.01697 C428.139082,129.756412 421.510265,119.647249 421.510265,119.647249 Z M275.852778,268.942651 C275.852778,268.942651 292.396741,268.942651 282.470363,266.083804 C272.543986,263.224956 262.617608,271.801499 275.852778,268.942651 Z M252.343497,265.491717 C255.670763,265.491717 272.307096,265.491717 258.99803,259.080454 C252.343497,259.080454 235.707165,249.463559 229.052632,252.669191 C232.379898,255.874822 242.361697,252.669191 252.343497,262.286085 C252.343497,265.491717 252.343497,265.491717 252.343497,265.491717 Z M321.932075,149.206507 C335.316783,152.633404 311.893545,132.072022 311.893545,132.072022 C311.893545,132.072022 308.547368,142.352713 308.547368,145.77961 C311.893545,149.206507 315.239722,145.77961 321.932075,149.206507 Z M233.052717,29.6385418 C240.126629,36.0960529 236.589673,39.3248085 233.052717,32.8672974 C229.515761,29.6385418 229.515761,26.4097863 233.052717,29.6385418 Z M222.166082,42.9758166 C222.166082,37.5851218 216.776608,42.9758166 222.166082,42.9758166 C222.166082,42.9758166 222.166082,42.9758166 222.166082,42.9758166 Z M212.817042,32.5725878 C219.698223,32.5725878 199.054678,25.9941129 202.495269,32.5725878 C205.93586,35.8618253 209.376451,35.8618253 212.817042,32.5725878 Z M192.033933,50.441501 C192.033933,50.441501 192.033933,47.1044042 188.656159,43.7673075 C181.900609,43.7673075 188.656159,40.4302107 198.789483,40.4302107 C208.922808,43.7673075 212.300583,40.4302107 208.922808,53.7785977 C208.922808,60.4527912 188.656159,57.1156945 188.656159,57.1156945 C188.656159,53.7785977 192.033933,53.7785977 192.033933,50.441501 Z M251.795565,46.4643197 C261.874027,49.8030813 298.828388,76.513174 268.593002,66.4968892 C268.593002,63.1581276 224.919666,46.4643197 238.357615,43.1255581 C241.717103,43.1255581 248.436077,43.1255581 251.795565,46.4643197 Z M259.487335,73.400328 C252.998309,76.5768254 262.731848,79.7533227 269.220873,82.9298201 C285.443437,92.4593121 275.709899,63.870836 259.487335,73.400328 Z"></path>
        </g>
    </g>
</svg>