<?xml version="1.0" encoding="UTF-8"?>
<svg width="512px" height="512px" viewBox="0 0 512 512" version="1.1" xmlns="http://www.w3.org/2000/svg" xmlns:xlink="http://www.w3.org/1999/xlink">
    <!-- Generator: Sketch 64 (93537) - https://sketch.com -->
    <title>mpb</title>
    <desc>Created with Sketch.</desc>
    <g id="mpb" stroke="none" stroke-width="1" fill="none" fill-rule="evenodd">
        <g transform="translate(33.000000, 0.000000)" fill="#FFFFFF" fill-rule="nonzero" id="Group">
            <g transform="translate(-0.000000, 0.000000)">
                <path d="M126.729454,510.770528 L126.729454,510.770528 C123.861598,511.916191 120.42017,510.197697 119.273028,506.76071 L0.543780769,139.575917 C-0.603361714,136.711761 1.69092325,133.274774 4.55877946,132.701943 L4.55877946,132.701943 C7.42663567,131.556281 10.8680631,133.274774 12.0152056,136.711761 L130.744453,503.323723 C131.318024,506.187879 129.59731,509.624866 126.729454,510.770528 Z" id="Path"></path>
                <path d="M199.249773,168.77805 C190.112204,169.93518 182.116831,171.09231 172.408163,174.563701 C174.692556,232.420201 268.923738,261.348452 300.334132,226.634551 C311.756094,213.906121 313.469388,194.813476 313.469388,194.813476 C269.494836,172.828005 216.953813,167.042355 199.249773,168.77805 M258.35102,230.661224 L258.35102,230.138776 L257.306122,229.616327 C257.828571,229.616327 257.828571,229.616327 258.35102,229.616327 L258.35102,229.093878 L258.873469,229.616327 C259.395918,229.616327 259.395918,229.616327 259.918367,229.616327 L259.395918,230.138776 L259.918367,230.661224 L258.873469,230.138776 L258.35102,230.661224 M292.310204,227.265306 L292.310204,226.220408 L291.265306,225.697959 C291.787755,225.697959 291.787755,225.697959 292.310204,225.697959 L292.310204,224.653061 L292.832653,225.697959 C293.355102,225.697959 293.355102,225.697959 293.877551,225.697959 L293.355102,226.220408 L293.877551,227.265306 L292.832653,226.742857 L292.310204,227.265306 M276.37551,224.391837 L276.37551,223.346939 L274.808163,222.82449 C275.330612,222.82449 275.853061,222.82449 276.37551,222.82449 L276.37551,221.779592 L277.420408,222.82449 C277.942857,222.82449 278.465306,222.82449 278.987755,222.82449 L277.942857,223.869388 L278.987755,224.914286 L277.420408,224.391837 L276.37551,224.391837 M289.436735,221.779592 L289.436735,220.734694 L287.869388,220.212245 C288.391837,220.212245 288.914286,220.212245 289.436735,220.212245 L289.436735,219.167347 L290.481633,220.212245 C291.004082,220.212245 291.526531,220.212245 292.04898,220.212245 L291.004082,221.257143 L292.04898,222.302041 L290.481633,221.779592 L289.436735,221.779592 M280.555102,218.122449 L280.555102,217.077551 L279.510204,216.555102 C280.032653,216.555102 280.032653,216.555102 280.555102,216.555102 L280.555102,215.510204 L281.077551,216.555102 C281.6,216.555102 281.6,216.555102 282.122449,216.555102 L281.6,217.077551 L282.122449,218.122449 L281.077551,217.6 L280.555102,218.122449 M294.922449,215.510204 L294.922449,214.465306 L293.877551,213.942857 C294.4,213.942857 294.4,213.942857 294.922449,213.942857 L294.922449,212.897959 L295.444898,213.942857 C295.967347,213.942857 295.967347,213.942857 296.489796,213.942857 L295.967347,214.465306 L296.489796,215.510204 L295.444898,214.987755 L294.922449,215.510204 M270.106122,218.122449 L270.106122,217.077551 L269.061224,216.555102 C269.583673,216.555102 270.106122,216.555102 270.106122,216.555102 L270.106122,215.510204 L270.628571,216.555102 C271.15102,216.555102 271.15102,216.555102 271.673469,216.555102 L271.15102,217.077551 L271.673469,218.122449 L270.628571,217.6 L270.106122,218.122449 M288.391837,215.510204 L288.391837,214.465306 L287.346939,213.942857 C287.869388,213.942857 287.869388,213.942857 288.391837,213.942857 L288.391837,212.897959 L288.914286,213.942857 C289.436735,213.942857 289.436735,213.942857 289.959184,213.942857 L289.436735,214.465306 L289.959184,215.510204 L288.914286,214.987755 L288.391837,215.510204 M224.914286,217.6 L224.914286,216.032653 L223.346939,214.987755 C223.869388,214.987755 224.391837,214.987755 225.436735,214.987755 L225.436735,213.420408 L226.481633,214.987755 C227.004082,214.987755 227.526531,214.987755 228.571429,214.987755 L227.526531,216.032653 L228.571429,217.6 L227.004082,216.555102 L224.914286,217.6 M299.363265,211.853061 L299.363265,210.808163 L298.318367,209.763265 C298.840816,209.763265 299.363265,209.763265 299.885714,209.763265 L299.885714,208.718367 L300.930612,209.763265 C301.453061,209.763265 301.97551,209.763265 302.497959,209.763265 L301.453061,210.808163 L301.97551,211.853061 L300.408163,211.330612 L299.363265,211.853061 M212.636735,212.37551 L212.636735,211.330612 L211.591837,211.330612 C212.114286,211.330612 212.636735,211.330612 212.636735,211.330612 L212.636735,210.285714 L213.159184,211.330612 C213.681633,211.330612 214.204082,211.330612 214.204082,211.330612 L213.681633,211.853061 L214.204082,212.897959 L213.159184,212.37551 L212.636735,212.37551 M251.559184,212.37551 L251.559184,210.808163 L249.469388,209.763265 C249.991837,209.763265 251.036735,209.763265 251.559184,209.763265 L251.559184,208.195918 L252.604082,209.763265 C253.126531,209.763265 253.64898,209.763265 254.693878,209.763265 L253.64898,210.808163 L254.693878,212.37551 L252.604082,211.330612 L251.559184,212.37551 M301.191837,207.412245 L301.191837,206.367347 L299.62449,205.844898 C300.146939,205.844898 300.669388,205.844898 301.191837,205.844898 L301.191837,204.8 L302.236735,205.844898 C302.759184,205.844898 303.281633,205.844898 303.804082,205.844898 L302.759184,206.889796 L303.281633,207.934694 L301.714286,207.412245 L301.191837,207.412245 M306.677551,201.142857 L306.677551,200.097959 L305.632653,199.57551 C306.155102,199.57551 306.155102,199.57551 306.677551,199.57551 L306.677551,198.530612 L307.2,199.57551 C307.722449,199.57551 307.722449,199.57551 308.244898,199.57551 L307.722449,200.097959 L308.244898,201.142857 L307.2,200.620408 L306.677551,201.142857 M295.706122,200.881633 C296.228571,200.881633 296.75102,200.881633 297.273469,200.881633 L297.273469,199.314286 L298.318367,200.881633 C298.840816,200.881633 299.363265,200.881633 299.885714,200.359184 L298.840816,201.404082 L299.885714,202.971429 L298.318367,201.926531 L297.273469,202.971429 L297.273469,201.404082 L295.706122,200.881633 M213.681633,206.106122 L213.681633,205.061224 L212.114286,204.538776 C212.636735,204.538776 213.159184,204.538776 213.681633,204.538776 L213.681633,203.493878 L214.726531,204.538776 C215.24898,204.538776 215.771429,204.538776 216.293878,204.538776 L215.24898,205.583673 L216.293878,206.628571 L214.726531,206.106122 L213.681633,206.106122 M246.595918,203.232653 L246.595918,202.710204 L245.55102,202.187755 C246.073469,202.187755 246.073469,202.187755 246.595918,202.187755 L246.595918,201.665306 L247.118367,202.187755 C247.640816,202.187755 247.640816,202.187755 248.163265,202.187755 L247.640816,202.710204 L248.163265,203.232653 L247.118367,202.710204 L246.595918,203.232653 M190.171429,208.979592 L190.171429,207.934694 L188.604082,207.412245 C189.126531,207.412245 189.64898,207.412245 190.171429,207.412245 L190.171429,206.367347 L191.216327,207.412245 C191.738776,207.412245 192.261224,207.412245 192.783673,207.412245 L191.738776,207.412245 L192.783673,208.457143 L191.216327,207.934694 L190.171429,208.979592 M240.065306,199.836735 L240.065306,198.791837 L239.020408,198.269388 C239.542857,198.269388 240.065306,198.269388 240.065306,198.269388 L240.065306,197.22449 L240.587755,198.269388 C241.110204,198.269388 241.632653,198.269388 241.632653,198.269388 L240.587755,198.791837 L241.110204,199.836735 L240.065306,199.314286 L240.065306,199.836735 M255.477551,199.836735 L255.477551,198.791837 L253.910204,198.269388 C254.432653,198.269388 254.955102,198.269388 255.477551,198.269388 L255.477551,197.22449 L256.522449,198.269388 C257.044898,198.269388 257.567347,198.269388 258.089796,198.269388 L257.044898,198.269388 L258.089796,199.314286 L256.522449,198.791837 L255.477551,199.836735 M196.179592,202.710204 L196.179592,201.142857 L194.612245,200.620408 C195.134694,200.620408 195.657143,200.620408 196.702041,200.620408 L196.702041,199.053061 L197.746939,200.620408 C198.269388,200.620408 198.791837,200.620408 199.836735,200.620408 L198.791837,201.665306 L199.836735,203.232653 L197.746939,201.665306 L196.179592,202.710204 M203.493878,198.008163 L203.493878,197.485714 L202.44898,196.963265 C202.971429,196.963265 202.971429,196.963265 203.493878,196.963265 L203.493878,196.440816 L204.016327,196.963265 C204.538776,196.963265 204.538776,196.963265 205.061224,196.963265 L204.538776,197.485714 L205.061224,198.008163 L204.016327,197.485714 L203.493878,198.008163 M246.334694,194.612245 L246.334694,193.567347 L244.767347,193.044898 C245.289796,193.044898 245.812245,193.044898 246.334694,193.044898 L246.334694,192 L247.379592,193.044898 C247.902041,193.044898 248.42449,193.044898 248.946939,193.044898 L247.902041,193.567347 L248.946939,194.612245 L247.379592,194.089796 L246.334694,194.612245 M217.6,189.387755 L217.6,188.342857 L216.032653,187.820408 C216.555102,187.820408 217.077551,187.820408 217.6,187.820408 L217.6,186.77551 L218.644898,187.820408 C219.167347,187.820408 219.689796,187.820408 220.212245,187.820408 L219.167347,188.342857 L220.212245,189.387755 L218.644898,188.865306 L217.6,189.387755 M262.008163,181.55102 L262.008163,180.506122 L260.963265,179.983673 C261.485714,179.983673 262.008163,179.983673 262.008163,179.983673 L262.008163,178.938776 L262.530612,179.983673 C263.053061,179.983673 263.57551,179.983673 263.57551,179.983673 L263.57551,180.506122 L264.097959,181.55102 L263.053061,181.028571 L262.008163,181.55102 M182.334694,179.722449 L182.334694,178.155102 L180.244898,177.632653 C180.767347,177.632653 181.289796,177.632653 182.334694,177.110204 L182.334694,175.542857 L183.379592,177.110204 C183.902041,177.110204 184.42449,177.110204 185.469388,176.587755 L184.42449,177.632653 L185.469388,179.2 L183.902041,178.677551 L182.334694,179.722449" id="Shape"></path>
                <path d="M225.736187,126.726396 C213.694375,127.308009 181.009457,128.471237 172.408163,165.694519 C214.841215,153.48063 256.127427,166.857747 313.469388,185.469388 C308.882031,155.807085 273.903435,125.563168 225.736187,126.726396 M258.873469,167.967347 L258.873469,166.4 L257.306122,165.355102 C257.828571,165.355102 258.35102,165.355102 259.395918,165.355102 L259.395918,163.787755 L260.440816,165.355102 C260.963265,165.355102 261.485714,165.355102 262.530612,165.355102 L261.485714,166.4 L262.530612,167.967347 L260.963265,166.922449 L258.873469,167.967347" id="Shape"></path>
                <path d="M93.3912756,359.183673 L19.5918367,130.039384 C35.0382309,114.572145 62.4984873,98.5320444 92.2470983,87.6476907 C107.121404,81.9190834 122.567798,77.9090584 138.014192,75.0447547 C155.748941,71.6075904 173.48369,69.8890082 190.64635,69.8890082 C218.678695,69.8890082 243.278508,68.1704261 265.589966,63.5875403 C281.608449,60.7232367 295.910666,56.1403509 309.068706,50.4117436 C344.538203,35.5173648 361.128775,14.3215181 370.282194,1.11022302e-15 L444.081633,229.144289 C434.928214,243.465807 418.337642,264.088793 382.868145,279.556033 C369.710105,285.28464 355.407888,289.294665 339.389405,292.73183 C317.077947,297.314715 291.906045,299.033298 264.445789,299.033298 C247.283129,299.033298 229.54838,300.75188 211.813631,304.189044 C196.367237,307.053348 180.920843,311.636233 166.046537,316.79198 C135.725838,327.676334 108.83767,343.716434 93.3912756,359.183673 Z M271.97269,271.673469 C305.167199,253.387755 320.047495,239.102041 337.217069,221.387755 C361.82679,195.673469 372.128534,180.244898 394.44898,132.816327 C380.141002,144.244898 341.223302,143.102041 337.789388,142.530612 C317.758219,139.102041 302.305603,128.244898 283.419072,120.244898 C273.117328,115.673469 230.765714,99.6734694 216.457737,97.9591837 C194.70961,108.244898 171.244527,125.959184 152.357996,144.816327 C121.452764,175.673469 90.5475325,212.244898 79.6734694,227.673469 C112.867978,221.959184 111.72334,218.530612 136.90538,222.530612 C184.407866,229.387755 226.187161,256.816327 271.97269,271.673469" id="Shape"></path>
            </g>
        </g>
    </g>
</svg>