<?xml version="1.0" encoding="UTF-8"?>
<svg width="512px" height="512px" viewBox="0 0 512 512" version="1.1" xmlns="http://www.w3.org/2000/svg" xmlns:xlink="http://www.w3.org/1999/xlink">
    <!-- Generator: Sketch 64 (93537) - https://sketch.com -->
    <title>outros</title>
    <desc>Created with Sketch.</desc>
    <g id="outros" stroke="none" stroke-width="1" fill="none" fill-rule="evenodd">
        <path d="M127.220444,368.773585 L127.220444,334.708496 C127.220444,313.856533 130.219951,297.288513 136.218963,285.004436 C142.217976,272.720358 154.836589,257.494296 174.074803,239.326249 L174.074803,239.326249 L193.313016,221.364657 C213.585543,202.164334 227.290184,186.009224 234.426941,172.899326 C241.563697,159.789429 245.132075,144.150456 245.132075,125.982409 C245.132075,93.7754163 232.720325,68.2265999 207.896824,49.3359599 C183.073322,30.44532 149.561595,21 107.361643,21 C74.0567789,21 38.2695645,26.7807423 0,38.3422269 L0,38.3422269 L0,90.0592248 C35.5803519,74.7815487 69.1955099,67.1427107 100.845474,67.1427107 C125.048388,67.1427107 144.286601,72.5105429 158.560115,83.2462071 C172.833628,93.9818713 179.970385,108.536955 179.970385,126.911457 C179.970385,150.653791 163.731677,181.105916 131.254263,218.26783 L131.254263,218.26783 L111.705756,240.874662 C81.2969668,275.559116 66.0925722,312.617803 66.0925722,352.050723 L66.0925722,352.050723 L66.0925722,368.773585 L127.220444,368.773585 Z M126.792453,490.735849 L126.792453,430.358491 L65.2075472,430.358491 L65.2075472,490.735849 L126.792453,490.735849 Z M394.088369,368.773585 L394.088369,334.708496 C394.088369,313.856533 397.087875,297.288513 403.086888,285.004436 C409.085901,272.720358 421.704514,257.494296 440.942727,239.326249 L440.942727,239.326249 L460.180941,221.364657 C480.453467,202.164334 494.158108,186.009224 501.294865,172.899326 C508.431622,159.789429 512,144.150456 512,125.982409 C512,93.7754163 499.588249,68.2265999 474.764748,49.3359599 C449.941247,30.44532 416.42952,21 374.229568,21 C340.924703,21 305.137489,26.7807423 266.867925,38.3422269 L266.867925,38.3422269 L266.867925,90.0592248 C302.448276,74.7815487 336.063434,67.1427107 367.713399,67.1427107 C391.916312,67.1427107 411.154526,72.5105429 425.428039,83.2462071 C439.701552,93.9818713 446.838309,108.536955 446.838309,126.911457 C446.838309,150.653791 430.599602,181.105916 398.122188,218.26783 L398.122188,218.26783 L378.57368,240.874662 C348.164891,275.559116 332.960497,312.617803 332.960497,352.050723 L332.960497,352.050723 L332.960497,368.773585 L394.088369,368.773585 Z M394.867925,490.735849 L394.867925,430.358491 L333.283019,430.358491 L333.283019,490.735849 L394.867925,490.735849 Z" id="??" fill="#FFFFFF" fill-rule="nonzero"></path>
    </g>
</svg>