<?xml version="1.0" encoding="UTF-8"?>
<svg width="512px" height="512px" viewBox="0 0 512 512" version="1.1" xmlns="http://www.w3.org/2000/svg" xmlns:xlink="http://www.w3.org/1999/xlink">
    <!-- Generator: Sketch 64 (93537) - https://sketch.com -->
    <title>pop</title>
    <desc>Created with Sketch.</desc>
    <g id="pop" stroke="none" stroke-width="1" fill="none" fill-rule="evenodd">
        <g transform="translate(46.000000, 0.000000)" fill="#FFFFFF" id="Shape">
            <path d="M103.353938,0 C76.87662,0 50.3550536,10.0639183 30.2133815,30.1806425 C-10.0676338,70.4110658 -10.0746204,135.997785 30.2133815,176.174102 C56.9963617,202.917975 90.4788714,209.034368 119.91034,201.446038 L347.88356,400.528076 C349.006911,401.491384 350.303752,402.231845 351.704627,402.7098 C363.071761,406.851005 374.501774,404.467398 383.908014,398.892073 C393.897631,411.721196 397.063125,424.283277 396.461699,435.799293 C395.760714,449.284679 389.384313,461.962536 379.541413,471.616232 C369.698514,481.269928 356.566109,487.524206 343.51696,488.524308 C330.489353,489.523248 317.543256,485.820133 305.67309,474.161578 C305.67309,474.161578 305.67309,473.992858 305.67309,473.981222 L170.49071,339.077906 C156.393578,324.997927 139.496581,318.715141 123.367523,318.896661 C122.292175,318.896661 121.159188,318.826846 120.092573,318.896661 C103.031392,320.021849 87.5363649,327.981363 75.8810351,339.623046 C64.2239587,351.265312 56.2668484,366.939986 55.139101,383.984784 C54.0131003,401.030163 60.2975116,419.328143 75.334919,434.346555 C78.2736308,437.364005 82.6142712,438.559814 86.6851805,437.473455 C90.7560898,436.387095 93.9222248,433.188035 94.9642493,429.108289 C96.0062738,425.028544 94.7616367,420.704535 91.7096705,417.801518 C80.8502264,406.956309 77.5420899,396.086666 78.2459859,385.439267 C78.9498819,374.791868 84.207851,364.206721 92.2552044,356.168084 C100.303722,348.129446 110.882539,342.87178 121.548107,342.168392 C132.213674,341.465004 143.257679,344.777153 154.115377,355.622362 L289.298338,490.525677 C289.297872,490.585795 289.297872,490.645915 289.298338,490.706033 C305.692885,506.850215 326.173988,513.265649 345.336377,511.796039 C364.498766,510.327011 382.392512,501.424411 395.916165,488.160688 C409.439235,474.897546 418.708072,456.89919 419.750234,436.890155 C420.685851,418.948814 414.641894,399.844468 400.282765,382.347036 C405.355008,373.214045 407.274566,362.020924 403.011599,351.075647 C402.493362,349.804631 401.754207,348.635245 400.828299,347.62154 C330.350204,267.592966 271.778955,199.43536 201.602447,119.812878 C209.099027,90.3712295 203.042843,56.8291017 176.312844,30.1806425 C156.201447,10.0691544 129.824852,0 103.353938,0 L103.353938,0 Z M103.353938,23.271731 C123.822814,23.271731 144.280046,31.0591504 159.937511,46.7250979 C160.438214,47.2254401 160.912136,47.6774935 161.393044,48.1795811 C161.393044,48.8416619 161.288246,50.5282806 160.119743,53.9975139 C158.621126,58.4424145 155.684442,64.6274588 151.386543,71.2697926 C142.790162,84.5538785 129.258358,100.278587 114.634323,114.722187 C100.010287,129.165787 84.1758292,142.384712 70.786668,150.902747 C64.0894674,155.161474 57.9680759,158.118147 53.501917,159.629646 C49.9737039,160.824068 48.2171661,160.882247 47.6797831,160.902028 C47.3013444,160.535499 46.9642429,160.187004 46.588133,159.811166 C15.2173113,128.532796 15.2056671,78.0686288 46.588133,46.7250979 C62.279366,31.0539142 82.8850622,23.271731 103.353938,23.271731 Z M191.959247,143.993952 C200.283734,153.451584 208.466161,162.799838 216.521665,171.992753 L172.309545,216.172389 L144.291108,191.809796 C164.362332,180.920953 181.096309,164.033821 191.959247,143.993952 Z M231.986417,189.628071 C281.975841,246.792693 328.367768,300.470686 381.724714,361.07551 C382.896709,366.038207 380.78735,371.404668 376.266463,375.801861 C371.800304,380.146693 366.075982,382.13119 361.347245,381.256173 L189.958179,231.626564 L231.986417,189.628071 Z"></path>
        </g>
    </g>
</svg>