<?xml version="1.0" encoding="UTF-8"?>
<svg width="512px" height="512px" viewBox="0 0 512 512" version="1.1" xmlns="http://www.w3.org/2000/svg" xmlns:xlink="http://www.w3.org/1999/xlink">
    <!-- Generator: Sketch 64 (93537) - https://sketch.com -->
    <title>rap</title>
    <desc>Created with Sketch.</desc>
    <g id="rap" stroke="none" stroke-width="1" fill="none" fill-rule="evenodd">
        <g transform="translate(6.000000, 214.000000)"></g>
        <g id="Group" transform="translate(27.000000, 0.000000)" fill="#FFFFFF" fill-rule="nonzero">
            <path d="M146.91374,293.370101 C115.048353,294.630389 89.8813805,319.085792 89.7857595,348.882849 L4.46462274,473.585376 C-2.8851791,483.988971 -0.695051957,497.890832 9.5515574,505.874762 C19.7981668,513.858692 34.8296795,513.37555 44.4647465,504.752583 L160.349179,403.814954 C191.042351,398.389708 212.057331,371.760844 208.529843,342.763439 C205.002356,313.766035 178.127233,292.222122 146.91374,293.370101 L146.91374,293.370101 Z M96.2930728,368.867278 L133.752524,398.591136 L27.1279721,493.205477 C24.8700169,495.207481 21.4004202,495.29715 19.0317358,493.41472 C16.6630515,491.532289 16.1352727,488.265843 17.8001743,485.792531 L96.2930728,368.867278 Z" id="Shape"></path>
            <path d="M218.748664,0.647681154 C157.759367,2.2325968 109.240542,46.8098116 109.244891,101.255386 C109.185204,137.247167 130.669148,170.527803 165.59006,188.539119 C200.510971,206.550435 243.552582,206.550435 278.473494,188.539119 C313.394405,170.527803 334.87835,137.247167 334.818662,101.255386 C334.818662,74.0539188 322.483609,48.0099965 300.617704,29.0569429 C278.751799,10.1038893 249.219432,-0.144096368 218.748664,0.647681154 L218.748664,0.647681154 Z M221.448875,83.5326752 C226.825388,83.3919664 232.03659,85.2014109 235.894527,88.5485255 C239.752465,91.89564 241.928338,96.4951594 241.926131,101.298572 C241.951292,107.660742 238.164961,113.549267 231.999291,116.736856 C225.833621,119.924445 218.229932,119.924445 212.064262,116.736856 C205.898592,113.549267 202.112262,107.660742 202.137422,101.298572 C202.133002,91.6864668 210.689942,83.8143658 221.448875,83.5326752 Z" id="Shape"></path>
            <path d="M403.153277,305.42888 L347.272761,267.872589 C342.904392,264.969543 336.751136,265.788137 333.502559,269.704497 C330.253982,273.620856 331.130547,279.16364 335.464199,282.108539 L391.343962,319.664159 C395.712011,322.571894 401.869589,321.75516 405.120096,317.836908 C408.370603,313.918655 407.491486,308.372586 403.153277,305.42888 L403.153277,305.42888 Z" id="Path"></path>
            <path d="M267.133243,384.814861 L256.226643,326.065247 C255.674735,323.094949 253.282854,320.59821 249.952,319.515529 C246.621146,318.432848 242.857354,318.928709 240.078408,320.816327 C237.299463,322.703944 235.927551,325.696544 236.47946,328.666842 L247.386822,387.416456 C248.263218,391.988927 253.363074,395.105437 258.79744,394.389459 C264.231805,393.67348 267.957406,389.394213 267.133243,384.814861 L267.133243,384.814861 Z" id="Path"></path>
            <path d="M283.337418,307.737779 L320.658449,364.857356 C323.509174,369.211842 329.646889,370.613081 334.37159,367.988065 C339.09629,365.363049 340.62106,359.704577 337.778294,355.345669 L300.457287,298.226093 C297.607066,293.870537 291.468503,292.46854 286.743173,295.093902 C282.017844,297.719264 280.493396,303.37878 283.337418,307.737779 L283.337418,307.737779 Z" id="Path"></path>
            <path d="M323.147541,177.311475 C298.378023,205.502879 261.425747,221.838966 222.42623,221.838966 C183.426712,221.838966 146.474436,205.502879 121.704918,177.311475 C125.733473,201.215745 131.284205,224.873464 138.327458,248.158236 C141.249543,257.817498 148.182936,265.979499 157.579517,270.821792 C197.952418,291.627709 246.900033,291.627709 287.272934,270.821792 C296.669516,265.979499 303.602908,257.817498 306.524994,248.158236 C313.568249,224.873465 319.118983,201.215745 323.147541,177.311475 L323.147541,177.311475 Z" id="Path"></path>
        </g>
    </g>
</svg>