<?xml version="1.0" encoding="UTF-8"?>
<svg width="512px" height="512px" viewBox="0 0 512 512" version="1.1" xmlns="http://www.w3.org/2000/svg" xmlns:xlink="http://www.w3.org/1999/xlink">
    <!-- Generator: Sketch 64 (93537) - https://sketch.com -->
    <title>reggae</title>
    <desc>Created with Sketch.</desc>
    <g id="reggae" stroke="none" stroke-width="1" fill="none" fill-rule="evenodd">
        <g fill="#FFFFFF" fill-rule="nonzero" id="Shape">
            <path d="M480.763343,209.968447 C478.117812,194.982735 472.82675,180.878536 467.535688,166.774338 C461.362782,153.551651 454.308033,140.328965 446.37144,127.987791 C438.434847,115.646617 428.734567,104.186955 418.152443,94.4903184 C407.570319,83.9121693 396.106352,75.097045 384.642384,66.2819207 C372.296573,58.3483088 359.068918,51.2962094 345.841264,45.1256224 C331.731765,38.9550354 317.622267,34.5474732 302.630925,31.902936 C286.757739,28.3768862 271.766397,26.6138614 255.893211,26.6138614 C240.020025,26.6138614 225.028683,28.3768862 210.037341,31.0214235 C195.045999,33.6659608 180.936501,38.9550354 166.827002,44.24411 C153.599347,50.414697 140.371693,57.4667964 128.025881,65.4004082 C115.68007,73.3340201 104.216103,83.0306568 94.5158227,93.608806 C83.9336988,104.186955 75.1152623,115.646617 66.2968258,127.106278 C58.3602329,139.447452 51.3054837,152.670139 45.1325781,165.892825 C38.9596725,179.997024 34.5504543,194.101223 31.9049233,209.086934 C28.3775487,224.954158 26.6138614,239.939869 26.6138614,255.807093 C26.6138614,271.674317 28.3775487,286.660028 31.0230797,301.645739 C33.6686106,316.63145 38.9596725,330.735649 44.2507344,344.839848 C50.42364,358.062535 57.4783892,371.285221 65.4149821,383.626395 C73.351575,395.967569 83.0518552,407.427231 93.633979,417.123867 C104.216103,427.702016 115.68007,436.517141 127.144038,445.332265 C139.489849,453.265877 152.717504,460.317976 165.945159,466.488563 C180.054657,472.65915 194.164155,477.066712 209.155498,479.71125 C224.14684,483.237299 240.020025,484.118812 255.011367,484.118812 C270.884553,484.118812 285.875895,482.355787 300.867237,479.71125 C315.85858,477.066712 329.968078,471.777638 344.077576,466.488563 C357.305231,460.317976 370.532886,453.265877 382.878697,445.332265 C395.224508,437.398653 406.688476,427.702016 416.388756,417.123867 C426.97088,406.545718 435.789316,395.086057 444.607753,383.626395 C452.544346,371.285221 459.599095,358.062535 465.772,344.839848 C471.944906,330.735649 476.354124,316.63145 478.999655,301.645739 C482.52703,286.660028 483.408874,270.792804 483.408874,255.807093 C485.172561,239.939869 483.408874,224.954158 480.763343,209.968447 Z M62.7694512,255.807093 C62.7694512,156.196188 139.489849,73.3340201 237.374494,63.6373834 L237.374494,246.991969 L92.7521353,358.062535 C74.2334186,328.091112 62.7694512,292.830615 62.7694512,255.807093 Z M114.798227,387.152445 L237.374494,292.830615 L237.374494,447.976802 C188.873094,442.687728 145.662755,420.649917 114.798227,387.152445 Z M274.411928,447.976802 L274.411928,292.830615 L396.988196,387.152445 C366.123668,420.649917 322.913329,442.687728 274.411928,447.976802 Z M419.034287,358.062535 L274.411928,246.991969 L274.411928,63.6373834 C372.296573,72.4525077 449.016971,155.314676 449.016971,255.807093 C449.016971,292.830615 437.553004,328.091112 419.034287,358.062535 Z"></path>
            <path d="M506.703448,204.8 C503.172414,188.027586 498.758621,172.137931 491.696552,157.131034 C485.517241,141.241379 477.572414,126.234483 467.862069,112.993103 C459.034483,99.7517241 448.441379,86.5103448 436.965517,75.0344828 C425.489655,63.5586207 413.131034,52.9655172 399.006897,44.137931 C384.882759,35.3103448 370.758621,27.3655172 355.751724,20.3034483 C339.862069,14.1241379 323.972414,8.82758621 308.082759,5.29655172 C290.427586,1.76551724 273.655172,0 256,0 C238.344828,0 221.572414,1.76551724 204.8,5.29655172 C188.027586,8.82758621 172.137931,13.2413793 157.131034,20.3034483 C141.241379,26.4827586 126.234483,34.4275862 112.993103,44.137931 C99.7517241,52.9655172 86.5103448,63.5586207 75.0344828,75.0344828 C63.5586207,86.5103448 52.9655172,98.8689655 44.137931,112.993103 C35.3103448,127.117241 27.3655172,141.241379 20.3034483,156.248276 C14.1241379,172.137931 8.82758621,188.027586 5.29655172,203.917241 C1.76551724,221.572414 0,238.344828 0,256 C0,273.655172 1.76551724,290.427586 5.29655172,307.2 C8.82758621,323.972414 13.2413793,339.862069 20.3034483,354.868966 C26.4827586,370.758621 34.4275862,385.765517 44.137931,399.006897 C52.9655172,412.248276 63.5586207,425.489655 75.0344828,436.965517 C86.5103448,448.441379 99.7517241,459.034483 112.993103,467.862069 C127.117241,476.689655 141.241379,484.634483 156.248276,491.696552 C172.137931,497.875862 188.027586,503.172414 203.917241,506.703448 C221.572414,510.234483 238.344828,512 256,512 C273.655172,512 290.427586,510.234483 307.2,506.703448 C323.972414,503.172414 339.862069,498.758621 354.868966,491.696552 C369.875862,485.517241 384.882759,477.572414 398.124138,467.862069 C411.365517,459.034483 424.606897,448.441379 436.082759,436.965517 C447.558621,425.489655 458.151724,412.248276 466.97931,399.006897 C475.806897,384.882759 483.751724,370.758621 490.813793,355.751724 C496.993103,339.862069 502.289655,323.972414 505.82069,308.082759 C510.234483,290.427586 512,273.655172 512,256 C512,238.344828 510.234483,221.572414 506.703448,204.8 Z M256,499.641379 C121.82069,499.641379 12.3586207,390.17931 12.3586207,256 C12.3586207,121.82069 121.82069,12.3586207 256,12.3586207 C390.17931,12.3586207 499.641379,121.82069 499.641379,256 C499.641379,390.17931 390.17931,499.641379 256,499.641379 Z"></path>
        </g>
    </g>
</svg>