<?xml version="1.0" encoding="UTF-8"?>
<svg width="512px" height="512px" viewBox="0 0 512 512" version="1.1" xmlns="http://www.w3.org/2000/svg" xmlns:xlink="http://www.w3.org/1999/xlink">
    <!-- Generator: Sketch 64 (93537) - https://sketch.com -->
    <title>rock</title>
    <desc>Created with Sketch.</desc>
    <g id="rock" stroke="none" stroke-width="1" fill="none" fill-rule="evenodd">
        <g transform="translate(38.000000, 0.000000)" fill="#FFFFFF" fill-rule="nonzero" id="Shape">
            <path d="M383.296733,57.8064516 L381.648145,57.8064516 C367.635146,57.8064516 355.270736,63.5870968 345.379207,73.4967742 C335.487678,83.4064516 329.71762,97.4451613 329.71762,111.483871 L329.71762,187.458065 C323.123268,184.980645 316.528915,183.329032 309.110269,183.329032 C295.09727,183.329032 281.908565,188.283871 272.017037,198.193548 C262.125508,189.109677 248.936803,183.329032 234.923804,183.329032 C227.505158,183.329032 220.910805,184.980645 214.316453,187.458065 L214.316453,55.3290323 C214.316453,25.6 189.587632,0 160.73734,0 L159.088752,0 C145.075753,0 132.711342,5.78064516 122.819813,15.6903226 C112.928285,25.6 107.158227,39.6387097 107.158227,53.6774194 L107.158227,327.845161 C93.1452277,319.587097 75.0107586,311.329032 57.7005835,311.329032 C44.5118787,311.329032 32.147468,315.458065 22.2559394,323.716129 C21.4316453,323.716129 21.4316453,324.541935 20.6073513,324.541935 C7.41864645,337.754839 0,355.096774 0,374.090323 C0,393.083871 7.41864645,410.425806 20.6073513,423.63871 C20.6073513,423.63871 20.6073513,423.63871 21.4316453,424.464516 L84.9022872,482.270968 C105.509638,501.264516 132.711342,512 160.73734,512 L294.272976,512 C372.580911,512 436.875847,448.412903 436.875847,369.135484 L436.875847,113.135484 C436.875847,83.4064516 412.147025,57.8064516 383.296733,57.8064516 Z M403.611188,370.834815 C403.611188,431.210737 355.054643,480.834783 294.153214,480.834783 L160.828463,480.834783 C141.076648,480.834783 122.147826,473.391176 107.333964,460.158097 L43.9635581,402.263377 C37.3796198,395.646838 33.2646584,385.722028 33.2646584,375.797219 C33.2646584,365.87241 36.5566275,356.774668 43.1405658,350.158129 C47.2555273,346.849859 51.3704887,346.022792 57.1314347,346.022792 C77.7062419,346.022792 104.041995,366.699478 112.271918,374.143084 C117.209872,379.105489 123.79381,379.932556 130.377748,377.451354 C136.138694,374.970152 140.253656,369.18068 140.253656,362.56414 L140.253656,54.06799 C140.253656,48.278518 142.722633,43.3161135 146.014602,39.1807763 C150.129563,35.8725066 155.067517,33.3913043 160.828463,33.3913043 C171.527363,33.3913043 181.40327,44.1431809 181.40327,55.7221249 L181.40327,237.676959 C181.40327,246.774701 188.810201,254.218307 197.863116,254.218307 C206.916031,254.218307 214.322962,246.774701 214.322962,237.676959 C214.322962,231.887487 216.791939,226.925082 220.083908,222.789745 C224.198869,218.654408 229.136823,217.000273 234.897769,217.000273 C246.419661,217.000273 255.472576,226.098015 255.472576,237.676959 C255.472576,246.774701 262.879507,254.218307 271.932422,254.218307 C280.985337,254.218307 288.392268,246.774701 288.392268,237.676959 C288.392268,231.887487 290.861245,226.925082 294.153214,222.789745 C298.268175,218.654408 303.206129,217.000273 308.967075,217.000273 C320.488967,217.000273 329.541882,226.098015 329.541882,237.676959 C329.541882,246.774701 336.948813,254.218307 346.001728,254.218307 C355.054643,254.218307 362.461574,246.774701 362.461574,237.676959 L362.461574,111.96271 C362.461574,106.173238 364.930551,101.210833 368.22252,97.0754963 C371.514489,93.7672266 376.452443,91.2860243 382.213389,91.2860243 C392.912288,91.2860243 402.788196,102.037901 402.788196,113.616845 L402.788196,370.834815 L403.611188,370.834815 Z"></path>
        </g>
    </g>
</svg>