<?xml version="1.0" encoding="UTF-8"?>
<svg width="512px" height="512px" viewBox="0 0 512 512" version="1.1" xmlns="http://www.w3.org/2000/svg" xmlns:xlink="http://www.w3.org/1999/xlink">
    <!-- Generator: Sketch 64 (93537) - https://sketch.com -->
    <title>samba-pagode</title>
    <desc>Created with Sketch.</desc>
    <g id="samba-pagode" stroke="none" stroke-width="1" fill="none" fill-rule="evenodd">
        <g id="samba-pagode2" transform="translate(0.000000, 10.000000)" fill="#FFFFFF" fill-rule="nonzero">
            <g id="Group">
                <g transform="translate(49.960000, 0.000000)" id="Path">
                    <path d="M264.63328,53.26848 C256.40032,22.75328 228.75232,0.1024 195.67712,0.1024 C162.60192,0.1024 134.9744,22.75328 126.74144,53.26848 C148.32736,45.50656 171.46976,41.0624 195.6976,41.0624 C219.90496,41.0624 243.04736,45.50656 264.63328,53.26848 Z"></path>
                    <path d="M283.08576,430.7968 C293.85824,437.0432 306.00288,440.6272 318.7824,440.6272 C337.9312,440.6272 355.91264,433.17248 369.4704,419.6352 C383.02816,406.09792 390.4624,388.096 390.4624,368.9472 C390.4624,356.16768 386.85792,344.02304 380.61152,333.25056 C360.3568,375.99232 325.80704,410.5216 283.08576,430.7968 Z"></path>
                    <path d="M388.29152,314.81856 C418.80672,306.5856 441.4576,278.9376 441.4576,245.8624 C441.4576,212.7872 418.80672,185.1392 388.29152,176.90624 C396.05344,198.49216 400.4976,221.63456 400.4976,245.8624 C400.4976,270.09024 396.05344,293.23264 388.29152,314.81856 Z"></path>
                    <path d="M380.632,158.47424 C386.8784,147.70176 390.4624,135.55712 390.4624,122.7776 C390.4624,103.6288 383.00768,85.62688 369.4704,72.0896 C346.92192,49.54112 310.56992,46.05952 283.33152,61.05088 C325.9504,81.34656 360.39776,115.83488 380.632,158.47424 Z"></path>
                    <path d="M108.0432,61.05088 C80.82528,46.05952 44.4528,49.5616 21.90432,72.0896 C8.36704,85.62688 0.91232,103.6288 0.91232,122.7776 C0.91232,135.55712 4.5168,147.70176 10.7632,158.47424 C30.99744,115.83488 65.4448,81.32608 108.0432,61.05088 Z"></path>
                    <path d="M195.6976,61.5424 C118.73376,61.5424 52.7472,108.97408 25.18112,176.10752 C20.30688,187.98592 16.74336,200.4992 14.40864,213.44256 C24.44384,218.74688 33.16832,226.4064 39.7424,235.90912 L61.59456,214.05696 C73.28864,202.3424 89.52928,196.87424 105.56512,197.3248 C113.9824,181.5552 126.24992,168.28416 141.26176,158.9248 C157.03136,149.0944 175.68864,143.4624 195.67712,143.4624 C252.14048,143.4624 298.07712,189.39904 298.07712,245.8624 C298.07712,284.4672 276.85984,317.97248 245.0544,335.42144 C245.09536,336.36352 245.32064,337.26464 245.32064,338.20672 C245.34112,354.16064 239.13568,369.13152 227.89216,380.37504 L179.19072,429.07648 C184.69984,429.58848 190.22944,430.20288 195.63616,430.20288 C220.31456,430.20288 243.84608,425.24672 265.37056,416.39936 C332.504,388.83328 379.956194,322.82624 379.956194,245.88288 C380.0176,144.24064 297.33984,61.5424 195.6976,61.5424 Z"></path>
                </g>
                <path d="M263.29088,310.45632 C255.488,302.65344 244.87936,298.45504 233.84064,299.02848 C234.2912,288.41984 230.48192,277.62688 222.33088,269.49632 C214.528,261.67296 203.83744,257.41312 192.88064,258.06848 C193.3312,247.45984 189.52192,236.66688 181.37088,228.53632 C166.6048,213.74976 140.82048,213.74976 126.0544,228.53632 L81.87904,272.71168 C79.79008,246.3744 57.69216,225.5872 30.84288,225.5872 C25.88672,225.5872 21.64736,229.13024 20.76672,234.02496 C19.92704,238.73536 0.12288,349.73696 0.12288,391.12704 C0.08192,409.45664 0.04096,434.56512 33.40288,467.92704 C48.76288,483.28704 68.85376,491.4176 91.50464,491.4176 C119.68512,491.4176 150.97856,478.35136 171.2128,458.11712 L263.43424,365.89568 C278.67136,350.63808 278.67136,325.81632 263.29088,310.45632 Z" id="Path"></path>
            </g>
        </g>
    </g>
</svg>