<?xml version="1.0" encoding="UTF-8"?>
<svg width="512px" height="512px" viewBox="0 0 512 512" version="1.1" xmlns="http://www.w3.org/2000/svg" xmlns:xlink="http://www.w3.org/1999/xlink">
    <!-- Generator: Sketch 64 (93537) - https://sketch.com -->
    <title>sertanejo</title>
    <desc>Created with Sketch.</desc>
    <g id="sertanejo" stroke="none" stroke-width="1" fill="none" fill-rule="evenodd">
        <g id="sertanejo2" transform="translate(0.000000, 128.000000)" fill="#FFFFFF" fill-rule="nonzero">
            <g id="Group">
                <path d="M285.480122,21.8718349 C284.110209,23.9294811 282.837167,26.050993 281.665225,28.2293249 C286.663807,30.6282315 291.980415,32.2856572 297.449862,33.1501065 C300.025336,33.5781443 301.77538,36.020906 301.368368,38.6196672 C300.961355,41.2184284 298.549854,42.9990436 295.968803,42.606623 C277.598797,39.7021146 261.25692,29.222411 250.863423,13.681487 C245.46066,5.60162808 236.60487,0.550449664 226.951012,0.0422915374 C217.297155,-0.465866589 207.967528,3.62807088 201.759147,11.0967443 C167.952517,51.7618251 145.483226,100.757066 136.654804,153.059517 C214.70265,170.130477 295.475286,170.130477 373.523132,153.059517 C365.401435,104.944274 345.723503,59.562572 316.205634,20.8725787 C312.4911,16.0026843 306.677715,13.2329852 300.586454,13.4310564 C294.495193,13.6291277 288.871017,16.7707452 285.475632,21.8718349 L285.480122,21.8718349 Z" id="Path"></path>
                <path d="M128.914672,217.860177 C121.354791,220.019875 115.588207,226.208084 113.914217,233.957392 C112.240227,241.706699 114.931089,249.756759 120.913882,254.897786 C121.328307,255.262212 121.440108,255.866484 121.183926,256.357353 C120.927745,256.848223 120.370831,257.096832 119.838748,256.957848 C100.882147,251.555719 82.2574816,245.030193 64.0616633,237.415228 C27.4319377,222.087173 2.60891106,187.083215 0.0418784312,147.138331 C-0.408057134,140.140962 2.7915415,133.413741 8.48206431,129.392669 C14.1725871,125.371597 21.5291515,124.639557 27.8878642,127.461629 C173.253155,191.962025 338.751466,191.962025 484.116756,127.461629 C490.475024,124.641698 497.829982,125.374814 503.51917,129.395591 C509.208358,133.416368 512.407398,140.142186 511.958254,147.138331 C509.39202,187.082146 484.570927,222.08583 447.942953,237.415228 C429.74567,245.030361 411.119502,251.555888 392.161382,256.957848 C391.6293,257.096832 391.072386,256.848223 390.816204,256.357353 C390.560023,255.866484 390.671823,255.262212 391.086249,254.897786 C397.069115,249.757413 399.760577,241.708023 398.087559,233.958877 C396.414541,226.209731 390.649116,220.021027 383.089936,217.860177 C300.007266,194.109575 212.024226,194.109575 128.941557,217.860177 L128.914672,217.860177 Z" id="Path"></path>
            </g>
        </g>
    </g>
</svg>