<?xml version="1.0" encoding="UTF-8"?>
<svg width="512px" height="512px" viewBox="0 0 512 512" version="1.1" xmlns="http://www.w3.org/2000/svg" xmlns:xlink="http://www.w3.org/1999/xlink">
    <!-- Generator: Sketch 64 (93537) - https://sketch.com -->
    <title>todos</title>
    <desc>Created with Sketch.</desc>
    <g id="todos" stroke="none" stroke-width="1" fill="none" fill-rule="evenodd">
        <path d="M66.2785355,377.843503 L81.3481694,265.740129 L81.3481694,0 L13.718593,0 L13.718593,265.740129 L28.4206748,377.843503 L66.2785355,377.843503 Z M88.6992103,512 L88.6992103,429.30079 L6,429.30079 L6,512 L88.6992103,512 Z M275.41565,377.843503 L290.485284,265.740129 L290.485284,0 L222.855707,0 L222.855707,265.740129 L237.557789,377.843503 L275.41565,377.843503 Z M297.836324,512 L297.836324,429.30079 L215.137114,429.30079 L215.137114,512 L297.836324,512 Z M484.552764,377.843503 L499.622398,265.740129 L499.622398,0 L431.992821,0 L431.992821,265.740129 L446.694903,377.843503 L484.552764,377.843503 Z M506.973439,512 L506.973439,429.30079 L424.274228,429.30079 L424.274228,512 L506.973439,512 Z" id="!!!" fill="#FFFFFF" fill-rule="nonzero"></path>
    </g>
</svg>